<?xml version="1.0" encoding="utf-8"?>
<!-- Generator: Adobe Illustrator 19.0.0, SVG Export Plug-In . SVG Version: 6.00 Build 0)  -->
<svg version="1.1" id="Layer_1" xmlns="http://www.w3.org/2000/svg" xmlns:xlink="http://www.w3.org/1999/xlink" x="0px" y="0px"
	 viewBox="0 0 56 56" style="enable-background:new 0 0 56 56;" xml:space="preserve">
<style type="text/css">
	.st0{opacity:0;fill:#FFFFFF;}
	.st1{fill:#FFFFFF;}
	.st2{fill:#FBF49C;}
</style>
<g id="XMLID_2_">
	<g id="XMLID_7_">
		<g id="XMLID_8_">
			<rect id="XMLID_11_" x="0" class="st0" width="56" height="56"/>
			<g id="XMLID_9_">
				<path id="XMLID_10_" class="st1" d="M15.5,32.1c-4.3,0-7.8-3.5-7.8-7.8c0-3.9,2.8-7,6.5-7.7c-0.1-0.3-0.1-0.6-0.1-1
					c0-2.8,2.2-5,5-5c1.5,0,2.8,0.6,3.7,1.6C24.2,8.6,27.8,6,31.9,6c5.4,0,9.7,4.4,9.7,9.7c0,0.3,0,0.6,0,0.9
					c3.6,0.7,6.4,3.8,6.4,7.6c0,4.3-3.5,7.8-7.8,7.8H15.5z"/>
			</g>
		</g>
	</g>
	<g id="XMLID_3_">
		<polygon id="XMLID_13_" class="st2" points="25.6,34 30,34 26,39.7 30,39.7 20,50 24,41.9 20,41.9 		"/>
	</g>
</g>
</svg>
