<?xml version="1.0" encoding="utf-8"?>
<!-- Generator: Adobe Illustrator 18.0.0, SVG Export Plug-In . SVG Version: 6.00 Build 0)  -->
<!DOCTYPE svg PUBLIC "-//W3C//DTD SVG 1.1//EN" "http://www.w3.org/Graphics/SVG/1.1/DTD/svg11.dtd">
<svg version="1.1" id="Layer_1" xmlns="http://www.w3.org/2000/svg" xmlns:xlink="http://www.w3.org/1999/xlink" x="0px" y="0px"
	 viewBox="0 0 612 792" enable-background="new 0 0 612 792" xml:space="preserve">
<g id="XMLID_2_">
	<g id="XMLID_7_">
		<g id="XMLID_8_">
			<rect id="XMLID_11_" y="90" fill="#FFFFFF" fill-opacity="0" width="612" height="612"/>
			<g id="XMLID_9_">
				<path id="XMLID_10_" fill="#A1A4AC" d="M169.4,440.8c-47,0-85.2-38.3-85.2-85.2c0-42.6,30.6-76.5,71-84.1
					c-1.1-3.3-1.1-6.6-1.1-10.9c0-30.6,24-54.6,54.6-54.6c16.4,0,30.6,6.6,40.4,17.5c15.3-39.3,54.6-67.8,99.4-67.8
					c59,0,106,48.1,106,106c0,3.3,0,6.6,0,9.8c39.3,7.6,69.9,41.5,69.9,83.1c0,47-38.2,85.2-85.2,85.2H169.4V440.8z"/>
			</g>
		</g>
	</g>
	<g id="XMLID_3_">
		<polygon id="XMLID_13_" fill="#FBF49C" points="279.8,461.6 327.9,461.6 284.1,523.9 327.9,523.9 218.6,636.4 262.3,547.9 
			218.6,547.9 		"/>
	</g>
</g>
</svg>
