<?xml version="1.0" encoding="utf-8"?>
<!-- Generator: Adobe Illustrator 19.0.0, SVG Export Plug-In . SVG Version: 6.00 Build 0)  -->
<svg version="1.1" id="Layer_1" xmlns="http://www.w3.org/2000/svg" xmlns:xlink="http://www.w3.org/1999/xlink" x="0px" y="0px"
	 viewBox="0 0 56 56" style="enable-background:new 0 0 56 56;" xml:space="preserve">
<style type="text/css">
	.st0{opacity:0;fill:#FFFFFF;}
	.st1{fill:#A1A4AC;}
	.st2{fill:#FBF49C;}
	.st3{fill:#9FC9EB;}
</style>
<g id="XMLID_2_">
	<g id="XMLID_25_">
		<rect id="XMLID_31_" x="0" class="st0" width="56" height="56"/>
		<g id="XMLID_29_">
			<path id="XMLID_30_" class="st1" d="M41.6,16.6c0-0.3,0-0.6,0-0.9c0-5.4-4.4-9.7-9.7-9.7c-4.2,0-7.7,2.6-9.1,6.3
				c-0.9-1-2.2-1.6-3.7-1.6c-2.8,0-5,2.2-5,5c0,0.3,0,0.6,0.1,1c-3.7,0.6-6.5,3.8-6.5,7.7c0,4.3,3.5,7.8,7.8,7.8h3.8l3.5-6.1H34
				l-4,6.1h10.2c4.3,0,7.8-3.5,7.8-7.8C48,20.5,45.2,17.3,41.6,16.6z"/>
		</g>
		<g id="XMLID_26_">
			<polygon id="XMLID_13_" class="st2" points="24.5,28 30,28 24,36 30,36 18,46 22,38.1 18,38.1 			"/>
		</g>
	</g>
	<g id="XMLID_3_">
		<g id="XMLID_4_">
			<g id="XMLID_5_">
				<rect id="XMLID_24_" x="40" y="34" class="st3" width="2" height="2"/>
				<rect id="XMLID_23_" x="36" y="34" class="st3" width="2" height="4"/>
				<rect id="XMLID_22_" x="32" y="34" class="st3" width="2" height="2"/>
				<rect id="XMLID_21_" x="32" y="38" class="st3" width="2" height="2"/>
				<rect id="XMLID_20_" x="10" y="38" class="st3" width="2" height="2"/>
				<rect id="XMLID_19_" x="14" y="40" class="st3" width="2" height="2"/>
				<rect id="XMLID_18_" x="14" y="44" class="st3" width="2" height="2"/>
				<rect id="XMLID_17_" x="10" y="42" class="st3" width="2" height="2"/>
				<rect id="XMLID_16_" x="32" y="42" class="st3" width="2" height="2"/>
				<rect id="XMLID_15_" x="36" y="40" class="st3" width="2" height="2"/>
				<rect id="XMLID_14_" x="40" y="42" class="st3" width="2" height="2"/>
				<rect id="XMLID_12_" x="36" y="44" class="st3" width="2" height="2"/>
				<rect id="XMLID_11_" x="28" y="42" class="st3" width="2" height="2"/>
				<rect id="XMLID_10_" x="24" y="44" class="st3" width="2" height="2"/>
				<rect id="XMLID_9_" x="40" y="38" class="st3" width="2" height="2"/>
				<rect id="XMLID_8_" x="14" y="34" class="st3" width="2" height="4"/>
				<rect id="XMLID_7_" x="10" y="34" class="st3" width="2" height="2"/>
			</g>
		</g>
	</g>
</g>
</svg>
