<?xml version="1.0" encoding="utf-8"?>
<!-- Generator: Adobe Illustrator 19.0.0, SVG Export Plug-In . SVG Version: 6.00 Build 0)  -->
<svg version="1.1" id="Layer_1" xmlns="http://www.w3.org/2000/svg" xmlns:xlink="http://www.w3.org/1999/xlink" x="0px" y="0px"
	 viewBox="0 0 56 56" style="enable-background:new 0 0 56 56;" xml:space="preserve">
<style type="text/css">
	.st0{opacity:0;fill:#FFFFFF;}
	.st1{fill:#9FC9EB;}
	.st2{fill:#FFFFFF;}
</style>
<g id="XMLID_2_">
	<g id="XMLID_26_">
		<g id="XMLID_27_">
			<rect id="XMLID_28_" x="0" y="0" class="st0" width="56" height="56"/>
		</g>
	</g>
	<g id="XMLID_4_">
		<polygon id="XMLID_25_" class="st1" points="15,42 13,42 12,44 14,44 		"/>
		<polygon id="XMLID_24_" class="st1" points="10,48 12,48 13,46 11,46 		"/>
		<polygon id="XMLID_23_" class="st1" points="17,42 16,44 18,44 19,42 		"/>
		<polygon id="XMLID_22_" class="st1" points="14,48 16,48 17,46 15,46 		"/>
		<polygon id="XMLID_21_" class="st1" points="18,48 20,48 21,46 19,46 		"/>
		<polygon id="XMLID_20_" class="st1" points="21,42 20,44 22,44 23,42 		"/>
		<polygon id="XMLID_19_" class="st1" points="25,42 24,44 26,44 27,42 		"/>
		<polygon id="XMLID_18_" class="st1" points="22,48 24,48 25,46 23,46 		"/>
		<polygon id="XMLID_17_" class="st1" points="26,48 28,48 29,46 27,46 		"/>
		<polygon id="XMLID_16_" class="st1" points="29,42 28,44 30,44 31,42 		"/>
		<polygon id="XMLID_15_" class="st1" points="30,48 32,48 33,46 31,46 		"/>
		<polygon id="XMLID_14_" class="st1" points="33,42 32,44 34,44 35,42 		"/>
		<polygon id="XMLID_13_" class="st1" points="37,42 36,44 38,44 39,42 		"/>
		<polygon id="XMLID_12_" class="st1" points="34,48 36,48 37,46 35,46 		"/>
		<polygon id="XMLID_11_" class="st1" points="14,40 16,40 17,38 15,38 		"/>
		<polygon id="XMLID_10_" class="st1" points="18,40 20,40 21,38 19,38 		"/>
		<polygon id="XMLID_9_" class="st1" points="22,40 24,40 25,38 23,38 		"/>
		<polygon id="XMLID_8_" class="st1" points="26,40 28,40 29,38 27,38 		"/>
		<polygon id="XMLID_7_" class="st1" points="30,40 32,40 33,38 31,38 		"/>
		<polygon id="XMLID_6_" class="st1" points="34,40 36,40 37,38 35,38 		"/>
		<polygon id="XMLID_5_" class="st1" points="38,40 40,40 41,38 39,38 		"/>
	</g>
	<path id="XMLID_3_" class="st2" d="M41.6,20.6c0-0.3,0-0.6,0-0.9c0-5.4-4.4-9.7-9.7-9.7c-4.2,0-7.7,2.6-9.1,6.3
		c-0.9-1-2.2-1.6-3.7-1.6c-2.8,0-5,2.2-5,5c0,0.3,0,0.6,0.1,1c-3.7,0.6-6.5,3.8-6.5,7.7c0,4.3,3.5,7.8,7.8,7.8h24.7
		c4.3,0,7.8-3.5,7.8-7.8C48,24.5,45.2,21.3,41.6,20.6z"/>
</g>
</svg>
