<?xml version="1.0" encoding="utf-8"?>
<!-- Generator: Adobe Illustrator 19.0.0, SVG Export Plug-In . SVG Version: 6.00 Build 0)  -->
<svg version="1.1" id="Layer_1" xmlns="http://www.w3.org/2000/svg" xmlns:xlink="http://www.w3.org/1999/xlink" x="0px" y="0px"
	 viewBox="0 0 56 56" style="enable-background:new 0 0 56 56;" xml:space="preserve">
<style type="text/css">
	.st0{fill:#FFFFFF;}
	.st1{fill:#A1A4AC;}
	.st2{opacity:0;fill:#FFFFFF;}
	.st3{fill:#9FC9EB;}
</style>
<g id="XMLID_2_">
	<g id="XMLID_13_">
		<g id="XMLID_14_">
			<g id="XMLID_23_">
				<path id="XMLID_24_" class="st0" d="M46.4,21.5c1.6-0.6,2.8-1.6,3.6-2.9c-3.2,1.1-6.6-0.6-7.7-3.7c-1.1-3.1,0.4-6.5,3.4-7.7
					c-1.5-0.4-3.1-0.4-4.7,0.2c-3.4,1.3-5.3,4.8-4.8,8.3c2.2,1.3,3.8,3.4,4.7,5.8C42.6,22.1,44.5,22.2,46.4,21.5z"/>
			</g>
			<rect id="XMLID_22_" x="8.1" y="6" class="st0" width="2" height="2"/>
			<g id="XMLID_19_">
				<rect id="XMLID_21_" x="20.1" y="6" class="st0" width="2" height="6"/>
				<rect id="XMLID_20_" x="18.1" y="8" class="st0" width="6" height="2"/>
			</g>
			<g id="XMLID_16_">
				<rect id="XMLID_18_" x="10.1" y="14" class="st0" width="2" height="6"/>
				<rect id="XMLID_17_" x="8.1" y="16" class="st0" width="6" height="2"/>
			</g>
			<path id="XMLID_15_" class="st1" d="M39.4,25.8c0-0.3,0-0.6,0-0.8c0-5-4-9-9-9c-3.8,0-7.1,2.4-8.4,5.8c-0.8-0.9-2.1-1.5-3.4-1.5
				c-2.6,0-4.6,2.1-4.6,4.6c0,0.3,0,0.6,0.1,0.9c-3.4,0.6-6,3.5-6,7.1c0,4,3.2,7.2,7.2,7.2h22.8c4,0,7.2-3.2,7.2-7.2
				C45.3,29.4,42.8,26.4,39.4,25.8z"/>
		</g>
	</g>
	<rect id="XMLID_12_" x="0" class="st2" width="56" height="56"/>
	<g id="XMLID_3_">
		<g id="XMLID_9_">
			<polygon id="XMLID_11_" class="st3" points="12,50 10,50 14,42 16,42 			"/>
			<polygon id="XMLID_10_" class="st3" points="16,50 14,50 18,42 20,42 			"/>
		</g>
		<polygon id="XMLID_8_" class="st3" points="20,50 18,50 22,42 24,42 		"/>
		<polygon id="XMLID_7_" class="st3" points="24,50 22,50 26,42 28,42 		"/>
		<polygon id="XMLID_6_" class="st3" points="28,50 26,50 30,42 32,42 		"/>
		<polygon id="XMLID_5_" class="st3" points="32,50 30,50 34,42 36,42 		"/>
		<polygon id="XMLID_4_" class="st3" points="36,50 34,50 38,42 40,42 		"/>
	</g>
</g>
</svg>
