<?xml version="1.0" encoding="utf-8"?>
<!-- Generator: Adobe Illustrator 19.0.0, SVG Export Plug-In . SVG Version: 6.00 Build 0)  -->
<svg version="1.1" id="Layer_1" xmlns="http://www.w3.org/2000/svg" xmlns:xlink="http://www.w3.org/1999/xlink" x="0px" y="0px"
	 viewBox="0 0 56 56" style="enable-background:new 0 0 56 56;" xml:space="preserve">
<style type="text/css">
	.st0{opacity:0;fill:#FFFFFF;}
	.st1{fill:#FFFFFF;}
	.st2{fill:#9FC9EB;}
</style>
<g id="XMLID_2_">
	<rect id="XMLID_12_" x="0" y="0" class="st0" width="56" height="56"/>
	<path id="XMLID_11_" class="st1" d="M41.6,16.6c0-0.3,0-0.6,0-0.9c0-5.4-4.4-9.7-9.7-9.7c-4.2,0-7.7,2.6-9.1,6.3
		c-0.9-1-2.2-1.6-3.7-1.6c-2.8,0-5,2.2-5,5c0,0.3,0,0.6,0.1,1c-3.7,0.6-6.5,3.8-6.5,7.7c0,4.3,3.5,7.8,7.8,7.8h24.7
		c4.3,0,7.8-3.5,7.8-7.8C48,20.5,45.2,17.3,41.6,16.6z"/>
	<polygon id="XMLID_10_" class="st2" points="16,42 14,42 18,34 20,34 	"/>
	<polygon id="XMLID_9_" class="st2" points="24,42 22,42 26,34 28,34 	"/>
	<polygon id="XMLID_8_" class="st2" points="28,42 26,42 30,34 32,34 	"/>
	<polygon id="XMLID_7_" class="st2" points="18,46 16,46 20,38 22,38 	"/>
	<polygon id="XMLID_6_" class="st2" points="30,46 28,46 32,38 34,38 	"/>
	<polygon id="XMLID_5_" class="st2" points="36,42 34,42 38,34 40,34 	"/>
	<polygon id="XMLID_4_" class="st2" points="42,38 40,38 42,34 44,34 	"/>
	<polygon id="XMLID_3_" class="st2" points="14,38 12,38 14,34 16,34 	"/>
</g>
</svg>
