<?xml version="1.0" encoding="utf-8"?>
<!-- Generator: Adobe Illustrator 19.0.0, SVG Export Plug-In . SVG Version: 6.00 Build 0)  -->
<svg version="1.1" id="Layer_1" xmlns="http://www.w3.org/2000/svg" xmlns:xlink="http://www.w3.org/1999/xlink" x="0px" y="0px"
	 viewBox="0 0 56 56" style="enable-background:new 0 0 56 56;" xml:space="preserve">
<style type="text/css">
	.st0{opacity:0;fill:#FFFFFF;}
	.st1{fill:#FFFFFF;}
</style>
<g id="XMLID_2_">
	<g id="XMLID_15_">
		<g id="XMLID_45_">
			<rect id="XMLID_46_" x="0" y="0" class="st0" width="56" height="56"/>
		</g>
		<rect id="XMLID_44_" x="18" y="34" class="st1" width="2" height="2"/>
		<rect id="XMLID_43_" x="42" y="20" class="st1" width="2" height="2"/>
		<rect id="XMLID_42_" x="28" y="20" class="st1" width="2" height="2"/>
		<rect id="XMLID_41_" x="40" y="42" class="st1" width="2" height="2"/>
		<g id="XMLID_16_">
			<path id="XMLID_40_" class="st1" d="M14.5,14.6c0,4.8,0,9.6,0,14.3c0,0.8,1.3,0.8,1.3,0c0-4.8,0-9.6,0-14.3
				C15.8,13.8,14.5,13.8,14.5,14.6z"/>
			<path id="XMLID_39_" class="st1" d="M15.6,16.4c-0.4-0.4-0.8-0.8-1.1-1.2c-0.2-0.3-0.7-0.2-0.9,0c-0.3,0.3-0.2,0.7,0,0.9
				c0.4,0.4,0.8,0.8,1.1,1.2c0.2,0.3,0.7,0.2,0.9,0C15.9,17.1,15.9,16.7,15.6,16.4z"/>
			<path id="XMLID_38_" class="st1" d="M15.6,17.4c0.4-0.4,0.8-0.8,1.1-1.2c0.2-0.3,0.3-0.7,0-0.9c-0.2-0.2-0.7-0.3-0.9,0
				c-0.4,0.4-0.8,0.8-1.1,1.2c-0.2,0.3-0.3,0.7,0,0.9C14.9,17.6,15.4,17.6,15.6,17.4z"/>
			<path id="XMLID_37_" class="st1" d="M14.7,26.2c-0.4,0.4-0.8,0.8-1.1,1.2c-0.2,0.3-0.3,0.7,0,0.9c0.2,0.2,0.7,0.3,0.9,0
				c0.4-0.4,0.8-0.8,1.1-1.2c0.2-0.3,0.3-0.7,0-0.9C15.4,26,14.9,26,14.7,26.2z"/>
			<path id="XMLID_36_" class="st1" d="M14.7,27.2c0.4,0.4,0.8,0.8,1.1,1.2c0.2,0.3,0.7,0.2,0.9,0c0.3-0.3,0.2-0.7,0-0.9
				c-0.4-0.4-0.8-0.8-1.1-1.2c-0.2-0.3-0.7-0.2-0.9,0C14.4,26.5,14.4,26.9,14.7,27.2z"/>
			<path id="XMLID_35_" class="st1" d="M14.8,19c1,0.6,1.9,1.1,2.9,1.7c0.7,0.4,1.4-0.7,0.7-1.1c-1-0.6-1.9-1.1-2.9-1.7
				C14.7,17.5,14.1,18.6,14.8,19z"/>
			<path id="XMLID_34_" class="st1" d="M17.4,20.1c0,1.1,0,2.2,0,3.3c0,0.8,1.3,0.8,1.3,0c0-1.1,0-2.2,0-3.3
				C18.7,19.3,17.4,19.3,17.4,20.1z"/>
			<path id="XMLID_33_" class="st1" d="M17.7,22.9c-1,0.6-1.9,1.1-2.9,1.7c-0.7,0.4-0.1,1.5,0.7,1.1c1-0.6,1.9-1.1,2.9-1.7
				C19.1,23.6,18.4,22.5,17.7,22.9z"/>
			<path id="XMLID_32_" class="st1" d="M15.5,24.6c-1-0.6-1.9-1.1-2.9-1.7c-0.7-0.4-1.4,0.7-0.7,1.1c1,0.6,1.9,1.1,2.9,1.7
				C15.5,26.1,16.2,25,15.5,24.6z"/>
			<path id="XMLID_31_" class="st1" d="M12.9,23.5c0-1.1,0-2.2,0-3.3c0-0.8-1.3-0.8-1.3,0c0,1.1,0,2.2,0,3.3
				C11.6,24.3,12.9,24.3,12.9,23.5z"/>
			<path id="XMLID_30_" class="st1" d="M12.6,20.7c1-0.6,1.9-1.1,2.9-1.7c0.7-0.4,0.1-1.5-0.7-1.1c-1,0.6-1.9,1.1-2.9,1.7
				C11.2,20,11.9,21.1,12.6,20.7z"/>
			<path id="XMLID_29_" class="st1" d="M9.3,25.9c4.1-2.4,8.3-4.8,12.4-7.2c0.7-0.4,0.1-1.5-0.7-1.1c-4.1,2.4-8.3,4.8-12.4,7.2
				C7.9,25.2,8.5,26.4,9.3,25.9z"/>
			<path id="XMLID_28_" class="st1" d="M10.3,24.1c-0.2,0.5-0.3,1.1-0.5,1.6c-0.2,0.8,1,1.1,1.3,0.3c0.2-0.5,0.3-1.1,0.5-1.6
				C11.8,23.6,10.5,23.3,10.3,24.1z"/>
			<path id="XMLID_27_" class="st1" d="M11.1,23.6c-0.5-0.1-1.1-0.3-1.6-0.4c-0.8-0.2-1.2,1.1-0.3,1.3c0.5,0.1,1.1,0.3,1.6,0.4
				C11.6,25.1,11.9,23.8,11.1,23.6z"/>
			<path id="XMLID_26_" class="st1" d="M19.2,20c0.5,0.1,1.1,0.3,1.6,0.4c0.8,0.2,1.2-1.1,0.3-1.3c-0.5-0.1-1.1-0.3-1.6-0.4
				C18.7,18.5,18.4,19.8,19.2,20z"/>
			<path id="XMLID_25_" class="st1" d="M20,19.5c0.2-0.5,0.3-1.1,0.5-1.6c0.2-0.8-1-1.1-1.3-0.3c-0.2,0.5-0.3,1.1-0.5,1.6
				C18.5,20,19.8,20.3,20,19.5z"/>
			<path id="XMLID_24_" class="st1" d="M21.7,24.8c-4.1-2.4-8.3-4.8-12.4-7.2c-0.7-0.4-1.4,0.7-0.7,1.1c4.1,2.4,8.3,4.8,12.4,7.2
				C21.8,26.4,22.4,25.2,21.7,24.8z"/>
			<path id="XMLID_23_" class="st1" d="M10.8,22.4c2.9,0,5.8,0,8.7,0c0.8,0,0.8-1.3,0-1.3c-2.9,0-5.8,0-8.7,0
				C9.9,21.1,9.9,22.4,10.8,22.4z"/>
			<path id="XMLID_22_" class="st1" d="M17.9,25.2c-1.5-2.5-2.9-5-4.4-7.5c-0.4-0.7-1.5-0.1-1.1,0.7c1.5,2.5,2.9,5,4.4,7.5
				C17.2,26.6,18.3,25.9,17.9,25.2z"/>
			<path id="XMLID_21_" class="st1" d="M16.8,17.7c-1.5,2.5-2.9,5-4.4,7.5c-0.4,0.7,0.7,1.4,1.1,0.7c1.5-2.5,2.9-5,4.4-7.5
				C18.3,17.6,17.2,16.9,16.8,17.7z"/>
			<path id="XMLID_20_" class="st1" d="M19.6,24.9c0.5-0.1,1.1-0.3,1.6-0.4c0.8-0.2,0.5-1.4-0.3-1.3c-0.5,0.1-1.1,0.3-1.6,0.4
				C18.4,23.8,18.7,25.1,19.6,24.9z"/>
			<path id="XMLID_19_" class="st1" d="M18.8,24.4c0.2,0.5,0.3,1.1,0.5,1.6c0.2,0.8,1.5,0.5,1.3-0.3c-0.2-0.5-0.3-1.1-0.5-1.6
				C19.8,23.3,18.5,23.6,18.8,24.4z"/>
			<path id="XMLID_18_" class="st1" d="M11.5,19.2c-0.2-0.5-0.3-1.1-0.5-1.6c-0.2-0.8-1.5-0.5-1.3,0.3c0.2,0.5,0.3,1.1,0.5,1.6
				C10.5,20.3,11.8,20,11.5,19.2z"/>
			<path id="XMLID_17_" class="st1" d="M10.7,18.7c-0.5,0.1-1.1,0.3-1.6,0.4c-0.8,0.2-0.5,1.4,0.3,1.3c0.5-0.1,1.1-0.3,1.6-0.4
				C11.9,19.8,11.6,18.5,10.7,18.7z"/>
		</g>
	</g>
	<g id="XMLID_12_">
		<rect id="XMLID_14_" x="36" y="30" class="st1" width="2" height="6"/>
		<rect id="XMLID_13_" x="34" y="32" class="st1" width="6" height="2"/>
	</g>
	<g id="XMLID_9_">
		<rect id="XMLID_11_" x="26" y="42" class="st1" width="2" height="6"/>
		<rect id="XMLID_10_" x="24" y="44" class="st1" width="6" height="2"/>
	</g>
	<rect id="XMLID_8_" x="8" y="10" class="st1" width="2" height="2"/>
	<rect id="XMLID_7_" x="22" y="6" class="st1" width="2" height="2"/>
	<rect id="XMLID_6_" x="36" y="10" class="st1" width="2" height="2"/>
	<rect id="XMLID_5_" x="48" y="14" class="st1" width="2" height="2"/>
	<rect id="XMLID_4_" x="48" y="42" class="st1" width="2" height="2"/>
	<rect id="XMLID_3_" x="10" y="42" class="st1" width="2" height="2"/>
</g>
</svg>
