<?xml version="1.0" encoding="utf-8"?>
<!-- Generator: Adobe Illustrator 19.0.0, SVG Export Plug-In . SVG Version: 6.00 Build 0)  -->
<svg version="1.1" id="Layer_1" xmlns="http://www.w3.org/2000/svg" xmlns:xlink="http://www.w3.org/1999/xlink" x="0px" y="0px"
	 viewBox="0 0 56 56" style="enable-background:new 0 0 56 56;" xml:space="preserve">
<style type="text/css">
	.st0{opacity:0;fill:#FFFFFF;}
	.st1{fill:#FFFFFF;}
</style>
<g id="XMLID_2_">
	<g id="XMLID_66_">
		<rect id="XMLID_67_" x="0" y="0" class="st0" width="56" height="56"/>
	</g>
	<g id="XMLID_63_">
		<rect id="XMLID_65_" x="43.5" y="40" class="st1" width="2" height="6"/>
		<rect id="XMLID_64_" x="41.5" y="42" class="st1" width="6" height="2"/>
	</g>
	<g id="XMLID_60_">
		<rect id="XMLID_62_" x="32" y="10" class="st1" width="2" height="6"/>
		<rect id="XMLID_61_" x="30" y="12" class="st1" width="6" height="2"/>
	</g>
	<g id="XMLID_57_">
		<rect id="XMLID_59_" x="7.5" y="38" class="st1" width="2" height="6"/>
		<rect id="XMLID_58_" x="5.5" y="40" class="st1" width="6" height="2"/>
	</g>
	<rect id="XMLID_56_" x="17.5" y="46" class="st1" width="2" height="2"/>
	<rect id="XMLID_55_" x="18" y="34" class="st1" width="2" height="2"/>
	<rect id="XMLID_54_" x="42" y="20" class="st1" width="2" height="2"/>
	<rect id="XMLID_53_" x="48" y="8" class="st1" width="2" height="2"/>
	<g id="XMLID_28_">
		<path id="XMLID_52_" class="st1" d="M14.1,5.7c0,7.8,0,15.5,0,23.3c0,1.4,2.1,1.4,2.1,0c0-7.8,0-15.5,0-23.3
			C16.2,4.3,14.1,4.3,14.1,5.7z"/>
		<path id="XMLID_51_" class="st1" d="M15.9,8.6c-0.6-0.7-1.2-1.3-1.8-2c-0.4-0.4-1.1-0.4-1.5,0c-0.4,0.4-0.4,1.1,0,1.5
			c0.6,0.7,1.2,1.3,1.8,2c0.4,0.4,1.1,0.4,1.5,0C16.3,9.7,16.3,9,15.9,8.6z"/>
		<path id="XMLID_50_" class="st1" d="M15.9,10.1c0.6-0.7,1.2-1.3,1.8-2c0.4-0.4,0.4-1.1,0-1.5c-0.4-0.4-1.1-0.4-1.5,0
			c-0.6,0.7-1.2,1.3-1.8,2C14,9,14,9.7,14.4,10.1C14.8,10.5,15.5,10.5,15.9,10.1z"/>
		<path id="XMLID_49_" class="st1" d="M14.4,24.5c-0.6,0.7-1.2,1.3-1.8,2c-0.4,0.4-0.4,1.1,0,1.5c0.4,0.4,1.1,0.4,1.5,0
			c0.6-0.7,1.2-1.3,1.8-2c0.4-0.4,0.4-1.1,0-1.5C15.5,24.1,14.8,24.1,14.4,24.5z"/>
		<path id="XMLID_48_" class="st1" d="M14.4,26c0.6,0.7,1.2,1.3,1.8,2c0.4,0.4,1.1,0.4,1.5,0c0.4-0.4,0.4-1.1,0-1.5
			c-0.6-0.7-1.2-1.3-1.8-2c-0.4-0.4-1.1-0.4-1.5,0C14,24.9,14,25.6,14.4,26z"/>
		<path id="XMLID_47_" class="st1" d="M14.6,12.8c1.6,0.9,3.1,1.8,4.7,2.7c1.2,0.7,2.3-1.1,1.1-1.8c-1.6-0.9-3.1-1.8-4.7-2.7
			C14.5,10.3,13.4,12.1,14.6,12.8z"/>
		<path id="XMLID_46_" class="st1" d="M18.8,14.6c0,1.8,0,3.6,0,5.4c0,1.4,2.1,1.4,2.1,0c0-1.8,0-3.6,0-5.4
			C20.9,13.2,18.8,13.2,18.8,14.6z"/>
		<path id="XMLID_45_" class="st1" d="M19.3,19.1c-1.6,0.9-3.1,1.8-4.7,2.7c-1.2,0.7-0.1,2.5,1.1,1.8c1.6-0.9,3.1-1.8,4.7-2.7
			C21.5,20.2,20.5,18.4,19.3,19.1z"/>
		<path id="XMLID_44_" class="st1" d="M15.7,21.8c-1.6-0.9-3.1-1.8-4.7-2.7c-1.2-0.7-2.3,1.1-1.1,1.8c1.6,0.9,3.1,1.8,4.7,2.7
			C15.8,24.3,16.9,22.5,15.7,21.8z"/>
		<path id="XMLID_43_" class="st1" d="M11.5,20c0-1.8,0-3.6,0-5.4c0-1.4-2.1-1.4-2.1,0c0,1.8,0,3.6,0,5.4
			C9.4,21.4,11.5,21.4,11.5,20z"/>
		<path id="XMLID_42_" class="st1" d="M11,15.5c1.6-0.9,3.1-1.8,4.7-2.7c1.2-0.7,0.1-2.5-1.1-1.8c-1.6,0.9-3.1,1.8-4.7,2.7
			C8.8,14.4,9.8,16.2,11,15.5z"/>
		<path id="XMLID_41_" class="st1" d="M5.6,24.1c6.7-3.9,13.5-7.8,20.2-11.7c1.2-0.7,0.1-2.5-1.1-1.8C18,14.5,11.2,18.3,4.5,22.2
			C3.3,22.9,4.4,24.7,5.6,24.1z"/>
		<path id="XMLID_40_" class="st1" d="M7.2,21c-0.3,0.9-0.5,1.7-0.8,2.6c-0.4,1.3,1.6,1.9,2,0.6c0.3-0.9,0.5-1.7,0.8-2.6
			C9.7,20.3,7.6,19.7,7.2,21z"/>
		<path id="XMLID_39_" class="st1" d="M8.5,20.3c-0.9-0.2-1.8-0.4-2.6-0.6c-1.3-0.3-1.9,1.7-0.6,2c0.9,0.2,1.8,0.4,2.6,0.6
			C9.3,22.6,9.9,20.6,8.5,20.3z"/>
		<path id="XMLID_38_" class="st1" d="M21.8,14.4c0.9,0.2,1.8,0.4,2.6,0.6c1.3,0.3,1.9-1.7,0.6-2c-0.9-0.2-1.8-0.4-2.6-0.6
			C21,12,20.4,14,21.8,14.4z"/>
		<path id="XMLID_37_" class="st1" d="M23.1,13.6c0.3-0.9,0.5-1.7,0.8-2.6c0.4-1.3-1.6-1.9-2-0.6c-0.3,0.9-0.5,1.7-0.8,2.6
			C20.6,14.4,22.7,14.9,23.1,13.6z"/>
		<path id="XMLID_36_" class="st1" d="M25.8,22.2C19,18.3,12.3,14.5,5.6,10.6c-1.2-0.7-2.3,1.1-1.1,1.8c6.7,3.9,13.5,7.8,20.2,11.7
			C25.9,24.7,27,22.9,25.8,22.2z"/>
		<path id="XMLID_35_" class="st1" d="M8.1,18.3c4.7,0,9.5,0,14.2,0c1.4,0,1.4-2.1,0-2.1c-4.7,0-9.5,0-14.2,0
			C6.7,16.2,6.7,18.3,8.1,18.3z"/>
		<path id="XMLID_34_" class="st1" d="M19.6,22.8c-2.4-4.1-4.7-8.2-7.1-12.3c-0.7-1.2-2.5-0.1-1.8,1.1c2.4,4.1,4.7,8.2,7.1,12.3
			C18.5,25.1,20.3,24,19.6,22.8z"/>
		<path id="XMLID_33_" class="st1" d="M17.8,10.6c-2.4,4.1-4.7,8.2-7.1,12.3c-0.7,1.2,1.1,2.3,1.8,1.1c2.4-4.1,4.7-8.2,7.1-12.3
			C20.3,10.5,18.5,9.4,17.8,10.6z"/>
		<path id="XMLID_32_" class="st1" d="M22.3,22.3c0.9-0.2,1.8-0.4,2.6-0.6c1.3-0.3,0.8-2.4-0.6-2c-0.9,0.2-1.8,0.4-2.6,0.6
			C20.4,20.6,21,22.6,22.3,22.3z"/>
		<path id="XMLID_31_" class="st1" d="M21,21.6c0.3,0.9,0.5,1.7,0.8,2.6c0.4,1.3,2.4,0.7,2-0.6c-0.3-0.9-0.5-1.7-0.8-2.6
			C22.7,19.7,20.6,20.3,21,21.6z"/>
		<path id="XMLID_30_" class="st1" d="M9.3,13c-0.3-0.9-0.5-1.7-0.8-2.6C8.1,9.2,6,9.7,6.4,11c0.3,0.9,0.5,1.7,0.8,2.6
			C7.6,14.9,9.7,14.4,9.3,13z"/>
		<path id="XMLID_29_" class="st1" d="M8,12.3c-0.9,0.2-1.8,0.4-2.6,0.6c-1.3,0.3-0.8,2.4,0.6,2c0.9-0.2,1.8-0.4,2.6-0.6
			C9.9,14,9.3,12,8,12.3z"/>
	</g>
	<g id="XMLID_3_">
		<path id="XMLID_27_" class="st1" d="M32.5,26.9c0,4.8,0,9.6,0,14.3c0,0.8,1.3,0.8,1.3,0c0-4.8,0-9.6,0-14.3
			C33.8,26.1,32.5,26.1,32.5,26.9z"/>
		<path id="XMLID_26_" class="st1" d="M33.6,28.7c-0.4-0.4-0.8-0.8-1.1-1.2c-0.2-0.3-0.7-0.2-0.9,0c-0.3,0.3-0.2,0.7,0,0.9
			c0.4,0.4,0.8,0.8,1.1,1.2c0.2,0.3,0.7,0.2,0.9,0C33.9,29.4,33.9,29,33.6,28.7z"/>
		<path id="XMLID_25_" class="st1" d="M33.6,29.6c0.4-0.4,0.8-0.8,1.1-1.2c0.2-0.3,0.3-0.7,0-0.9c-0.2-0.2-0.7-0.3-0.9,0
			c-0.4,0.4-0.8,0.8-1.1,1.2c-0.2,0.3-0.3,0.7,0,0.9C32.9,29.9,33.4,29.9,33.6,29.6z"/>
		<path id="XMLID_24_" class="st1" d="M32.7,38.5c-0.4,0.4-0.8,0.8-1.1,1.2c-0.2,0.3-0.3,0.7,0,0.9c0.2,0.2,0.7,0.3,0.9,0
			c0.4-0.4,0.8-0.8,1.1-1.2c0.2-0.3,0.3-0.7,0-0.9C33.4,38.3,32.9,38.2,32.7,38.5z"/>
		<path id="XMLID_23_" class="st1" d="M32.7,39.4c0.4,0.4,0.8,0.8,1.1,1.2c0.2,0.3,0.7,0.2,0.9,0c0.3-0.3,0.2-0.7,0-0.9
			c-0.4-0.4-0.8-0.8-1.1-1.2c-0.2-0.3-0.7-0.2-0.9,0C32.4,38.8,32.4,39.2,32.7,39.4z"/>
		<path id="XMLID_22_" class="st1" d="M32.8,31.3c1,0.6,1.9,1.1,2.9,1.7c0.7,0.4,1.4-0.7,0.7-1.1c-1-0.6-1.9-1.1-2.9-1.7
			C32.7,29.8,32.1,30.9,32.8,31.3z"/>
		<path id="XMLID_21_" class="st1" d="M35.4,32.4c0,1.1,0,2.2,0,3.3c0,0.8,1.3,0.8,1.3,0c0-1.1,0-2.2,0-3.3
			C36.7,31.6,35.4,31.6,35.4,32.4z"/>
		<path id="XMLID_20_" class="st1" d="M35.7,35.2c-1,0.6-1.9,1.1-2.9,1.7c-0.7,0.4-0.1,1.5,0.7,1.1c1-0.6,1.9-1.1,2.9-1.7
			C37.1,35.9,36.4,34.7,35.7,35.2z"/>
		<path id="XMLID_19_" class="st1" d="M33.5,36.8c-1-0.6-1.9-1.1-2.9-1.7c-0.7-0.4-1.4,0.7-0.7,1.1c1,0.6,1.9,1.1,2.9,1.7
			C33.5,38.4,34.2,37.2,33.5,36.8z"/>
		<path id="XMLID_18_" class="st1" d="M30.9,35.7c0-1.1,0-2.2,0-3.3c0-0.8-1.3-0.8-1.3,0c0,1.1,0,2.2,0,3.3
			C29.6,36.6,30.9,36.6,30.9,35.7z"/>
		<path id="XMLID_17_" class="st1" d="M30.6,33c1-0.6,1.9-1.1,2.9-1.7c0.7-0.4,0.1-1.5-0.7-1.1c-1,0.6-1.9,1.1-2.9,1.7
			C29.2,32.3,29.9,33.4,30.6,33z"/>
		<path id="XMLID_16_" class="st1" d="M27.3,38.2c4.1-2.4,8.3-4.8,12.4-7.2c0.7-0.4,0.1-1.5-0.7-1.1c-4.1,2.4-8.3,4.8-12.4,7.2
			C25.9,37.5,26.5,38.6,27.3,38.2z"/>
		<path id="XMLID_15_" class="st1" d="M28.3,36.3c-0.2,0.5-0.3,1.1-0.5,1.6c-0.2,0.8,1,1.1,1.3,0.3c0.2-0.5,0.3-1.1,0.5-1.6
			C29.8,35.9,28.5,35.5,28.3,36.3z"/>
		<path id="XMLID_14_" class="st1" d="M29.1,35.9c-0.5-0.1-1.1-0.3-1.6-0.4c-0.8-0.2-1.2,1.1-0.3,1.3c0.5,0.1,1.1,0.3,1.6,0.4
			C29.6,37.3,29.9,36.1,29.1,35.9z"/>
		<path id="XMLID_13_" class="st1" d="M37.2,32.3c0.5,0.1,1.1,0.3,1.6,0.4c0.8,0.2,1.2-1.1,0.3-1.3c-0.5-0.1-1.1-0.3-1.6-0.4
			C36.7,30.8,36.4,32.1,37.2,32.3z"/>
		<path id="XMLID_12_" class="st1" d="M38,31.8c0.2-0.5,0.3-1.1,0.5-1.6c0.2-0.8-1-1.1-1.3-0.3c-0.2,0.5-0.3,1.1-0.5,1.6
			C36.5,32.3,37.8,32.6,38,31.8z"/>
		<path id="XMLID_11_" class="st1" d="M39.7,37.1c-4.1-2.4-8.3-4.8-12.4-7.2c-0.7-0.4-1.4,0.7-0.7,1.1c4.1,2.4,8.3,4.8,12.4,7.2
			C39.8,38.6,40.4,37.5,39.7,37.1z"/>
		<path id="XMLID_10_" class="st1" d="M28.8,34.7c2.9,0,5.8,0,8.7,0c0.8,0,0.8-1.3,0-1.3c-2.9,0-5.8,0-8.7,0
			C27.9,33.4,27.9,34.7,28.8,34.7z"/>
		<path id="XMLID_9_" class="st1" d="M35.9,37.5c-1.5-2.5-2.9-5-4.4-7.5c-0.4-0.7-1.5-0.1-1.1,0.7c1.5,2.5,2.9,5,4.4,7.5
			C35.2,38.9,36.3,38.2,35.9,37.5z"/>
		<path id="XMLID_8_" class="st1" d="M34.8,29.9c-1.5,2.5-2.9,5-4.4,7.5c-0.4,0.7,0.7,1.4,1.1,0.7c1.5-2.5,2.9-5,4.4-7.5
			C36.3,29.9,35.2,29.2,34.8,29.9z"/>
		<path id="XMLID_7_" class="st1" d="M37.6,37.1c0.5-0.1,1.1-0.3,1.6-0.4c0.8-0.2,0.5-1.4-0.3-1.3c-0.5,0.1-1.1,0.3-1.6,0.4
			C36.4,36.1,36.7,37.3,37.6,37.1z"/>
		<path id="XMLID_6_" class="st1" d="M36.8,36.7c0.2,0.5,0.3,1.1,0.5,1.6c0.2,0.8,1.5,0.5,1.3-0.3c-0.2-0.5-0.3-1.1-0.5-1.6
			C37.8,35.5,36.5,35.9,36.8,36.7z"/>
		<path id="XMLID_5_" class="st1" d="M29.5,31.5c-0.2-0.5-0.3-1.1-0.5-1.6c-0.2-0.8-1.5-0.5-1.3,0.3c0.2,0.5,0.3,1.1,0.5,1.6
			C28.5,32.6,29.8,32.3,29.5,31.5z"/>
		<path id="XMLID_4_" class="st1" d="M28.7,31c-0.5,0.1-1.1,0.3-1.6,0.4c-0.8,0.2-0.5,1.4,0.3,1.3c0.5-0.1,1.1-0.3,1.6-0.4
			C29.9,32.1,29.6,30.8,28.7,31z"/>
	</g>
</g>
</svg>
