<?xml version="1.0" encoding="utf-8"?>
<!-- Generator: Adobe Illustrator 19.0.0, SVG Export Plug-In . SVG Version: 6.00 Build 0)  -->
<svg version="1.1" id="Layer_1" xmlns="http://www.w3.org/2000/svg" xmlns:xlink="http://www.w3.org/1999/xlink" x="0px" y="0px"
	 viewBox="0 0 56 56" style="enable-background:new 0 0 56 56;" xml:space="preserve">
<style type="text/css">
	.st0{opacity:0;fill:#FFFFFF;}
	.st1{fill:#FFFFFF;}
</style>
<g id="XMLID_2_">
	<rect id="XMLID_28_" x="0" y="0" class="st0" width="56" height="56"/>
	<g id="XMLID_3_">
		<path id="XMLID_27_" class="st1" d="M26.4,10.4c0,11.8,0,23.5,0,35.3c0,2.1,3.2,2.1,3.2,0c0-11.8,0-23.5,0-35.3
			C29.6,8.3,26.4,8.3,26.4,10.4z"/>
		<path id="XMLID_26_" class="st1" d="M29.1,14.8c-0.9-1-1.9-2-2.8-3c-0.6-0.6-1.7-0.6-2.3,0c-0.6,0.6-0.6,1.6,0,2.3
			c0.9,1,1.9,2,2.8,3c0.6,0.6,1.7,0.6,2.3,0C29.8,16.5,29.7,15.5,29.1,14.8z"/>
		<path id="XMLID_25_" class="st1" d="M29.1,17.1c0.9-1,1.9-2,2.8-3c0.6-0.6,0.6-1.6,0-2.3c-0.6-0.6-1.7-0.6-2.3,0
			c-0.9,1-1.9,2-2.8,3c-0.6,0.6-0.6,1.6,0,2.3C27.5,17.7,28.5,17.7,29.1,17.1z"/>
		<path id="XMLID_24_" class="st1" d="M26.9,38.9c-0.9,1-1.9,2-2.8,3c-0.6,0.6-0.6,1.6,0,2.3c0.6,0.6,1.7,0.6,2.3,0
			c0.9-1,1.9-2,2.8-3c0.6-0.6,0.6-1.6,0-2.3C28.5,38.3,27.5,38.3,26.9,38.9z"/>
		<path id="XMLID_23_" class="st1" d="M26.9,41.2c0.9,1,1.9,2,2.8,3c0.6,0.6,1.7,0.6,2.3,0c0.6-0.6,0.6-1.6,0-2.3
			c-0.9-1-1.9-2-2.8-3c-0.6-0.6-1.7-0.6-2.3,0C26.2,39.5,26.3,40.5,26.9,41.2z"/>
		<path id="XMLID_22_" class="st1" d="M27.2,21.2c2.4,1.4,4.7,2.7,7.1,4.1c1.8,1,3.4-1.7,1.6-2.8c-2.4-1.4-4.7-2.7-7.1-4.1
			C27,17.4,25.4,20.2,27.2,21.2z"/>
		<path id="XMLID_21_" class="st1" d="M33.5,23.9c0,2.7,0,5.4,0,8.2c0,2.1,3.2,2.1,3.2,0c0-2.7,0-5.4,0-8.2
			C36.7,21.9,33.5,21.9,33.5,23.9z"/>
		<path id="XMLID_20_" class="st1" d="M34.3,30.7c-2.4,1.4-4.7,2.7-7.1,4.1c-1.8,1-0.2,3.8,1.6,2.8c2.4-1.4,4.7-2.7,7.1-4.1
			C37.7,32.4,36.1,29.7,34.3,30.7z"/>
		<path id="XMLID_19_" class="st1" d="M28.8,34.8c-2.4-1.4-4.7-2.7-7.1-4.1c-1.8-1-3.4,1.7-1.6,2.8c2.4,1.4,4.7,2.7,7.1,4.1
			C29,38.6,30.6,35.8,28.8,34.8z"/>
		<path id="XMLID_18_" class="st1" d="M22.5,32.1c0-2.7,0-5.4,0-8.2c0-2.1-3.2-2.1-3.2,0c0,2.7,0,5.4,0,8.2
			C19.3,34.1,22.5,34.1,22.5,32.1z"/>
		<path id="XMLID_17_" class="st1" d="M21.7,25.3c2.4-1.4,4.7-2.7,7.1-4.1c1.8-1,0.2-3.8-1.6-2.8c-2.4,1.4-4.7,2.7-7.1,4.1
			C18.3,23.6,19.9,26.3,21.7,25.3z"/>
		<path id="XMLID_16_" class="st1" d="M13.5,38.2c10.2-5.9,20.4-11.8,30.5-17.6c1.8-1,0.2-3.8-1.6-2.8
			c-10.2,5.9-20.4,11.8-30.5,17.6C10.1,36.5,11.8,39.2,13.5,38.2z"/>
		<path id="XMLID_15_" class="st1" d="M16,33.6c-0.4,1.3-0.8,2.6-1.2,3.9c-0.6,2,2.5,2.8,3.1,0.9c0.4-1.3,0.8-2.6,1.2-3.9
			C19.7,32.5,16.6,31.6,16,33.6z"/>
		<path id="XMLID_14_" class="st1" d="M18,32.5c-1.3-0.3-2.7-0.6-4-0.9c-2-0.5-2.9,2.6-0.9,3.1c1.3,0.3,2.7,0.6,4,0.9
			C19.2,36,20,32.9,18,32.5z"/>
		<path id="XMLID_13_" class="st1" d="M38,23.5c1.3,0.3,2.7,0.6,4,0.9c2,0.5,2.9-2.6,0.9-3.1c-1.3-0.3-2.7-0.6-4-0.9
			C36.8,20,36,23.1,38,23.5z"/>
		<path id="XMLID_12_" class="st1" d="M40,22.4c0.4-1.3,0.8-2.6,1.2-3.9c0.6-2-2.5-2.8-3.1-0.9c-0.4,1.3-0.8,2.6-1.2,3.9
			C36.3,23.5,39.4,24.4,40,22.4z"/>
		<path id="XMLID_11_" class="st1" d="M44.1,35.4c-10.2-5.9-20.4-11.8-30.5-17.6c-1.8-1-3.4,1.7-1.6,2.8
			c10.2,5.9,20.4,11.8,30.5,17.6C44.2,39.2,45.9,36.5,44.1,35.4z"/>
		<path id="XMLID_10_" class="st1" d="M17.3,29.5c7.1,0,14.3,0,21.4,0c2.1,0,2.1-3.2,0-3.2c-7.1,0-14.3,0-21.4,0
			C15.2,26.3,15.2,29.5,17.3,29.5z"/>
		<path id="XMLID_9_" class="st1" d="M34.7,36.4C31.2,30.2,27.6,24,24,17.8c-1-1.8-3.8-0.2-2.8,1.6C24.8,25.6,28.4,31.8,32,38
			C33,39.8,35.8,38.2,34.7,36.4z"/>
		<path id="XMLID_8_" class="st1" d="M32,17.8c-3.6,6.2-7.1,12.4-10.7,18.6c-1,1.8,1.7,3.4,2.8,1.6c3.6-6.2,7.1-12.4,10.7-18.6
			C35.8,17.6,33,16,32,17.8z"/>
		<path id="XMLID_7_" class="st1" d="M38.9,35.6c1.3-0.3,2.7-0.6,4-0.9c2-0.5,1.2-3.6-0.9-3.1c-1.3,0.3-2.7,0.6-4,0.9
			C36,32.9,36.8,36,38.9,35.6z"/>
		<path id="XMLID_6_" class="st1" d="M36.9,34.4c0.4,1.3,0.8,2.6,1.2,3.9c0.6,2,3.7,1.1,3.1-0.9c-0.4-1.3-0.8-2.6-1.2-3.9
			C39.4,31.6,36.3,32.5,36.9,34.4z"/>
		<path id="XMLID_5_" class="st1" d="M19.1,21.6c-0.4-1.3-0.8-2.6-1.2-3.9c-0.6-2-3.7-1.1-3.1,0.9c0.4,1.3,0.8,2.6,1.2,3.9
			C16.6,24.4,19.7,23.5,19.1,21.6z"/>
		<path id="XMLID_4_" class="st1" d="M17.1,20.4c-1.3,0.3-2.7,0.6-4,0.9c-2,0.5-1.2,3.6,0.9,3.1c1.3-0.3,2.7-0.6,4-0.9
			C20,23.1,19.2,20,17.1,20.4z"/>
	</g>
</g>
</svg>
