<?xml version="1.0" encoding="utf-8"?>
<!-- Generator: Adobe Illustrator 19.0.0, SVG Export Plug-In . SVG Version: 6.00 Build 0)  -->
<svg version="1.1" id="Layer_1" xmlns="http://www.w3.org/2000/svg" xmlns:xlink="http://www.w3.org/1999/xlink" x="0px" y="0px"
	 viewBox="0 0 56 56" style="enable-background:new 0 0 56 56;" xml:space="preserve">
<style type="text/css">
	.st0{opacity:0;fill:#FFFFFF;}
	.st1{fill:#9FC9EB;}
	.st2{fill:#CCCCCC;}
	.st3{fill:#FFFFFF;}
</style>
<g id="XMLID_2_">
	<rect id="XMLID_46_" x="0" y="0" class="st0" width="56" height="56"/>
	<g id="XMLID_42_">
		<g id="XMLID_43_">
			<rect id="XMLID_15_" x="26" y="34" class="st1" width="2" height="10"/>
		</g>
	</g>
	<rect id="XMLID_41_" x="22" y="34" class="st1" width="2" height="6"/>
	<rect id="XMLID_40_" x="14" y="34" class="st1" width="2" height="4"/>
	<g id="XMLID_36_">
		<g id="XMLID_37_">
			<rect id="XMLID_13_" x="18" y="34" class="st1" width="2" height="8"/>
		</g>
	</g>
	<rect id="XMLID_35_" x="30" y="40.2" class="st1" width="2" height="3.5"/>
	<rect id="XMLID_34_" x="34" y="40.5" class="st1" width="2" height="5.5"/>
	<g id="XMLID_32_">
		<path id="XMLID_33_" class="st2" d="M31.1,30.2c0.2-0.7,0.9-1.3,1.6-1.3c0.1,0,0.2,0,0.3,0c0.3-0.3,0.7-0.5,1.2-0.5
			c0.6,0,1.1,0.3,1.4,0.7c0.2-0.2,0.5-0.4,0.7-0.4c-0.3-0.6-0.2-1.4,0.3-1.9c0.2-0.2,0.5-0.3,0.7-0.4c0.2-0.7,0.8-1.1,1.6-1.1
			c0.8,0,1.4,0.4,1.6,1.1c0.3,0.1,0.5,0.2,0.7,0.4c0.5,0.5,0.6,1.3,0.3,1.9c0.3,0.1,0.5,0.2,0.7,0.4c0.3-0.4,0.8-0.7,1.4-0.7
			c0.4,0,0.9,0.2,1.2,0.5c0.1,0,0.2,0,0.3,0c0.4,0,0.7,0.1,1,0.4c1.2-1.4,1.9-3.2,1.9-5.1c0-3.8-2.7-7-6.4-7.6c0-0.3,0-0.6,0-0.9
			c0-5.4-4.4-9.7-9.7-9.7c-4.2,0-7.7,2.6-9.1,6.3c-0.9-1-2.2-1.6-3.7-1.6c-2.8,0-5,2.2-5,5c0,0.3,0,0.6,0.1,1
			c-3.7,0.6-6.5,3.8-6.5,7.7c0,4.3,3.5,7.8,7.8,7.8h15.9c0-0.1,0-0.2,0-0.3C31,31.3,30.9,30.8,31.1,30.2z"/>
	</g>
	<g id="XMLID_3_">
		<path id="XMLID_31_" class="st3" d="M38.2,27c0,4.8,0,9.6,0,14.3c0,0.8,1.3,0.8,1.3,0c0-4.8,0-9.6,0-14.3
			C39.5,26.2,38.2,26.2,38.2,27z"/>
		<path id="XMLID_30_" class="st3" d="M39.3,28.8c-0.4-0.4-0.8-0.8-1.1-1.2c-0.2-0.3-0.7-0.2-0.9,0c-0.3,0.3-0.2,0.7,0,0.9
			c0.4,0.4,0.8,0.8,1.1,1.2c0.2,0.3,0.7,0.2,0.9,0C39.6,29.5,39.6,29.1,39.3,28.8z"/>
		<path id="XMLID_29_" class="st3" d="M39.3,29.8c0.4-0.4,0.8-0.8,1.1-1.2c0.2-0.3,0.3-0.7,0-0.9c-0.2-0.2-0.7-0.3-0.9,0
			c-0.4,0.4-0.8,0.8-1.1,1.2c-0.2,0.3-0.3,0.7,0,0.9C38.6,30,39.1,30,39.3,29.8z"/>
		<path id="XMLID_28_" class="st3" d="M38.4,38.6c-0.4,0.4-0.8,0.8-1.1,1.2c-0.2,0.3-0.3,0.7,0,0.9c0.2,0.2,0.7,0.3,0.9,0
			c0.4-0.4,0.8-0.8,1.1-1.2c0.2-0.3,0.3-0.7,0-0.9C39.1,38.4,38.6,38.4,38.4,38.6z"/>
		<path id="XMLID_27_" class="st3" d="M38.4,39.6c0.4,0.4,0.8,0.8,1.1,1.2c0.2,0.3,0.7,0.2,0.9,0c0.3-0.3,0.2-0.7,0-0.9
			c-0.4-0.4-0.8-0.8-1.1-1.2c-0.2-0.3-0.7-0.2-0.9,0C38.1,38.9,38.1,39.3,38.4,39.6z"/>
		<path id="XMLID_26_" class="st3" d="M38.5,31.4c1,0.6,1.9,1.1,2.9,1.7c0.7,0.4,1.4-0.7,0.7-1.1c-1-0.6-1.9-1.1-2.9-1.7
			C38.5,29.9,37.8,31,38.5,31.4z"/>
		<path id="XMLID_25_" class="st3" d="M41.1,32.5c0,1.1,0,2.2,0,3.3c0,0.8,1.3,0.8,1.3,0c0-1.1,0-2.2,0-3.3
			C42.4,31.7,41.1,31.7,41.1,32.5z"/>
		<path id="XMLID_24_" class="st3" d="M41.4,35.3c-1,0.6-1.9,1.1-2.9,1.7c-0.7,0.4-0.1,1.5,0.7,1.1c1-0.6,1.9-1.1,2.9-1.7
			C42.8,36,42.1,34.9,41.4,35.3z"/>
		<path id="XMLID_23_" class="st3" d="M39.2,37c-1-0.6-1.9-1.1-2.9-1.7c-0.7-0.4-1.4,0.7-0.7,1.1c1,0.6,1.9,1.1,2.9,1.7
			C39.3,38.5,39.9,37.4,39.2,37z"/>
		<path id="XMLID_22_" class="st3" d="M36.6,35.9c0-1.1,0-2.2,0-3.3c0-0.8-1.3-0.8-1.3,0c0,1.1,0,2.2,0,3.3
			C35.3,36.7,36.6,36.7,36.6,35.9z"/>
		<path id="XMLID_21_" class="st3" d="M36.3,33.1c1-0.6,1.9-1.1,2.9-1.7c0.7-0.4,0.1-1.5-0.7-1.1c-1,0.6-1.9,1.1-2.9,1.7
			C34.9,32.4,35.6,33.5,36.3,33.1z"/>
		<path id="XMLID_20_" class="st3" d="M33,38.3c4.1-2.4,8.3-4.8,12.4-7.2c0.7-0.4,0.1-1.5-0.7-1.1c-4.1,2.4-8.3,4.8-12.4,7.2
			C31.6,37.6,32.2,38.8,33,38.3z"/>
		<path id="XMLID_19_" class="st3" d="M34,36.5c-0.2,0.5-0.3,1.1-0.5,1.6c-0.2,0.8,1,1.1,1.3,0.3c0.2-0.5,0.3-1.1,0.5-1.6
			C35.5,36,34.2,35.7,34,36.5z"/>
		<path id="XMLID_18_" class="st3" d="M34.8,36c-0.5-0.1-1.1-0.3-1.6-0.4c-0.8-0.2-1.2,1.1-0.3,1.3c0.5,0.1,1.1,0.3,1.6,0.4
			C35.3,37.5,35.6,36.2,34.8,36z"/>
		<path id="XMLID_17_" class="st3" d="M42.9,32.4c0.5,0.1,1.1,0.3,1.6,0.4c0.8,0.2,1.2-1.1,0.3-1.3c-0.5-0.1-1.1-0.3-1.6-0.4
			C42.4,30.9,42.1,32.2,42.9,32.4z"/>
		<path id="XMLID_16_" class="st3" d="M43.7,31.9c0.2-0.5,0.3-1.1,0.5-1.6c0.2-0.8-1-1.1-1.3-0.3c-0.2,0.5-0.3,1.1-0.5,1.6
			C42.2,32.4,43.5,32.7,43.7,31.9z"/>
		<path id="XMLID_14_" class="st3" d="M45.4,37.2c-4.1-2.4-8.3-4.8-12.4-7.2c-0.7-0.4-1.4,0.7-0.7,1.1c4.1,2.4,8.3,4.8,12.4,7.2
			C45.5,38.8,46.1,37.6,45.4,37.2z"/>
		<path id="XMLID_12_" class="st3" d="M34.5,34.8c2.9,0,5.8,0,8.7,0c0.8,0,0.8-1.3,0-1.3c-2.9,0-5.8,0-8.7,0
			C33.7,33.5,33.7,34.8,34.5,34.8z"/>
		<path id="XMLID_11_" class="st3" d="M41.6,37.6c-1.5-2.5-2.9-5-4.4-7.5c-0.4-0.7-1.5-0.1-1.1,0.7c1.5,2.5,2.9,5,4.4,7.5
			C40.9,39,42,38.3,41.6,37.6z"/>
		<path id="XMLID_10_" class="st3" d="M40.5,30.1c-1.5,2.5-2.9,5-4.4,7.5c-0.4,0.7,0.7,1.4,1.1,0.7c1.5-2.5,2.9-5,4.4-7.5
			C42,30,40.9,29.3,40.5,30.1z"/>
		<path id="XMLID_9_" class="st3" d="M43.3,37.3c0.5-0.1,1.1-0.3,1.6-0.4c0.8-0.2,0.5-1.4-0.3-1.3c-0.5,0.1-1.1,0.3-1.6,0.4
			C42.1,36.2,42.4,37.5,43.3,37.3z"/>
		<path id="XMLID_8_" class="st3" d="M42.5,36.8c0.2,0.5,0.3,1.1,0.5,1.6c0.2,0.8,1.5,0.5,1.3-0.3c-0.2-0.5-0.3-1.1-0.5-1.6
			C43.5,35.7,42.2,36,42.5,36.8z"/>
		<path id="XMLID_5_" class="st3" d="M35.2,31.6c-0.2-0.5-0.3-1.1-0.5-1.6c-0.2-0.8-1.5-0.5-1.3,0.3c0.2,0.5,0.3,1.1,0.5,1.6
			C34.2,32.7,35.5,32.4,35.2,31.6z"/>
		<path id="XMLID_4_" class="st3" d="M34.4,31.1c-0.5,0.1-1.1,0.3-1.6,0.4c-0.8,0.2-0.5,1.4,0.3,1.3c0.5-0.1,1.1-0.3,1.6-0.4
			C35.6,32.2,35.3,30.9,34.4,31.1z"/>
	</g>
</g>
</svg>
