<?xml version="1.0" encoding="utf-8"?>
<!-- Generator: Adobe Illustrator 19.0.0, SVG Export Plug-In . SVG Version: 6.00 Build 0)  -->
<svg version="1.1" id="Layer_1" xmlns="http://www.w3.org/2000/svg" xmlns:xlink="http://www.w3.org/1999/xlink" x="0px" y="0px"
	 viewBox="0 0 56 56" style="enable-background:new 0 0 56 56;" xml:space="preserve">
<style type="text/css">
	.st0{opacity:0;fill:#FFFFFF;}
	.st1{fill:#CCCCCC;}
</style>
<g id="XMLID_2_">
	<g id="XMLID_10_">
		<rect id="XMLID_11_" x="0" y="0" class="st0" width="56" height="56"/>
	</g>
	<path id="XMLID_9_" class="st1" d="M47,26H9c-0.5,0-1,0.4-1,1v0c0,0.5,0.4,1,1,1h38c0.5,0,1-0.4,1-1v0C48,26.4,47.5,26,47,26z"/>
	<path id="XMLID_8_" class="st1" d="M49,22H19c-0.5,0-1,0.4-1,1v0c0,0.5,0.4,1,1,1h30c0.5,0,1-0.4,1-1v0C50,22.4,49.5,22,49,22z"/>
	<path id="XMLID_7_" class="st1" d="M35,32H5c-0.5,0-1,0.5-1,1l0,0c0,0.5,0.4,1,1,1h30c0.5,0,1-0.5,1-1l0,0C36,32.5,35.5,32,35,32z"
		/>
	<path id="XMLID_6_" class="st1" d="M43,36H13c-0.5,0-1,0.5-1,1l0,0c0,0.5,0.4,1,1,1h30c0.5,0,1-0.5,1-1l0,0C44,36.5,43.5,36,43,36z
		"/>
	<path id="XMLID_5_" class="st1" d="M43,18H13c-0.5,0-1,0.4-1,1v0c0,0.5,0.4,1,1,1h30c0.5,0,1-0.4,1-1v0C44,18.4,43.5,18,43,18z"/>
	<path id="XMLID_4_" class="st1" d="M39,14H17c-0.5,0-1,0.4-1,1v0c0,0.5,0.4,1,1,1h22c0.5,0,1-0.4,1-1v0C40,14.4,39.5,14,39,14z"/>
	<path id="XMLID_3_" class="st1" d="M39,40H17c-0.5,0-1,0.5-1,1l0,0c0,0.5,0.4,1,1,1h22c0.5,0,1-0.5,1-1l0,0C40,40.5,39.5,40,39,40z
		"/>
</g>
</svg>
