<?xml version="1.0" encoding="utf-8"?>
<!-- Generator: Adobe Illustrator 19.0.0, SVG Export Plug-In . SVG Version: 6.00 Build 0)  -->
<svg version="1.1" id="Layer_1" xmlns="http://www.w3.org/2000/svg" xmlns:xlink="http://www.w3.org/1999/xlink" x="0px" y="0px"
	 viewBox="0 0 56 56" style="enable-background:new 0 0 56 56;" xml:space="preserve">
<style type="text/css">
	.st0{opacity:0;fill:#FFFFFF;}
	.st1{fill:#FFFFFF;}
</style>
<g id="XMLID_2_">
	<g id="XMLID_10_">
		<rect id="XMLID_11_" x="0" y="0" class="st0" width="56" height="56"/>
	</g>
	<path id="XMLID_9_" class="st1" d="M43,24H13c-0.5,0-1,0.4-1,1v0c0,0.5,0.4,1,1,1h30c0.5,0,1-0.4,1-1v0C44,24.4,43.5,24,43,24z"/>
	<path id="XMLID_8_" class="st1" d="M46,28H9c-0.5,0-1,0.4-1,1v0c0,0.5,0.4,1,1,1h37c0.5,0,1-0.4,1-1v0C47,28.4,46.5,28,46,28z"/>
	<path id="XMLID_7_" class="st1" d="M43,32H13c-0.5,0-1,0.5-1,1l0,0c0,0.5,0.4,1,1,1h30c0.5,0,1-0.5,1-1l0,0C44,32.5,43.5,32,43,32z
		"/>
	<path id="XMLID_6_" class="st1" d="M39,36H9c-0.5,0-1,0.5-1,1l0,0c0,0.5,0.4,1,1,1h30c0.5,0,1-0.5,1-1l0,0C40,36.5,39.5,36,39,36z"
		/>
	<path id="XMLID_5_" class="st1" d="M47,20H17c-0.5,0-1,0.4-1,1v0c0,0.5,0.4,1,1,1h30c0.5,0,1-0.4,1-1v0C48,20.4,47.5,20,47,20z"/>
	<path id="XMLID_4_" class="st1" d="M49,16H23c-0.5,0-1,0.4-1,1v0c0,0.5,0.4,1,1,1h26c0.5,0,1-0.4,1-1v0C50,16.4,49.5,16,49,16z"/>
	<path id="XMLID_3_" class="st1" d="M33,40H7c-0.5,0-1,0.5-1,1l0,0c0,0.5,0.4,1,1,1h26c0.5,0,1-0.5,1-1l0,0C34,40.5,33.5,40,33,40z"
		/>
</g>
</svg>
