<?xml version="1.0" encoding="utf-8"?>
<!-- Generator: Adobe Illustrator 19.0.0, SVG Export Plug-In . SVG Version: 6.00 Build 0)  -->
<svg version="1.1" id="Layer_1" xmlns="http://www.w3.org/2000/svg" xmlns:xlink="http://www.w3.org/1999/xlink" x="0px" y="0px"
	 viewBox="0 0 56 56" style="enable-background:new 0 0 56 56;" xml:space="preserve">
<style type="text/css">
	.st0{opacity:0;fill:#FFFFFF;}
	.st1{fill:#FBE200;}
	.st2{fill:#FFFFFF;}
	.st3{fill:#F3EBA5;}
</style>
<g id="XMLID_2_">
	<rect id="XMLID_17_" x="0" class="st0" width="56" height="56"/>
	<g id="XMLID_15_">
		<path id="XMLID_16_" class="st1" d="M35.9,29c0-0.3-0.1-0.7-0.2-1c-0.9-4-4.5-7-8.8-7c-4.3,0-7.9,3-8.8,7c-0.1,0.3-0.1,0.7-0.2,1
			c0,0.3-0.1,0.7-0.1,1v0h18v0C36,29.7,36,29.3,35.9,29z"/>
	</g>
	<path id="XMLID_14_" class="st2" d="M47,40H9c-0.5,0-1,0.5-1,1l0,0c0,0.5,0.4,1,1,1h38c0.5,0,1-0.5,1-1l0,0C48,40.5,47.5,40,47,40z
		"/>
	<path id="XMLID_13_" class="st3" d="M31,36h-8c-0.5,0-1,0.5-1,1l0,0c0,0.5,0.4,1,1,1h8c0.5,0,1-0.5,1-1l0,0C32,36.5,31.5,36,31,36z
		"/>
	<path id="XMLID_12_" class="st3" d="M37,32H17c-0.5,0-1,0.5-1,1l0,0c0,0.5,0.4,1,1,1h20c0.5,0,1-0.5,1-1l0,0C38,32.5,37.5,32,37,32
		z"/>
	<path id="XMLID_11_" class="st1" d="M15,28H9c-0.5,0-1,0.4-1,1v0c0,0.5,0.4,1,1,1h6c0.5,0,1-0.4,1-1v0C16,28.4,15.5,28,15,28z"/>
	<path id="XMLID_10_" class="st1" d="M45,28h-6c-0.5,0-1,0.4-1,1v0c0,0.5,0.4,1,1,1h6c0.5,0,1-0.4,1-1v0C46,28.4,45.5,28,45,28z"/>
	<path id="XMLID_9_" class="st1" d="M26,11v6c0,0.5,0.4,1,1,1h0c0.5,0,1-0.4,1-1v-6c0-0.5-0.4-1-1-1h0C26.4,10,26,10.4,26,11z"/>
	<path id="XMLID_8_" class="st1" d="M40.3,16.3l-4.2,4.2c-0.4,0.4-0.4,1,0,1.4v0c0.4,0.4,1,0.4,1.4,0l4.2-4.2c0.4-0.4,0.4-1,0-1.4v0
		C41.3,15.9,40.7,15.9,40.3,16.3z"/>
	<path id="XMLID_7_" class="st1" d="M16.5,21.9l-4.2-4.2c-0.4-0.4-0.4-1,0-1.4l0,0c0.4-0.4,1-0.4,1.4,0l4.2,4.2c0.4,0.4,0.4,1,0,1.4
		h0C17.6,22.3,16.9,22.3,16.5,21.9z"/>
	<path id="XMLID_6_" class="st2" d="M19,36H9c-0.5,0-1,0.5-1,1l0,0c0,0.5,0.4,1,1,1h10c0.5,0,1-0.5,1-1l0,0C20,36.5,19.5,36,19,36z"
		/>
	<path id="XMLID_5_" class="st2" d="M47,36H35c-0.5,0-1,0.5-1,1l0,0c0,0.5,0.4,1,1,1h12c0.5,0,1-0.5,1-1l0,0C48,36.5,47.5,36,47,36z
		"/>
	<path id="XMLID_4_" class="st2" d="M13,32H9c-0.5,0-1,0.5-1,1l0,0c0,0.5,0.4,1,1,1h4c0.5,0,1-0.5,1-1l0,0C14,32.5,13.5,32,13,32z"
		/>
	<path id="XMLID_3_" class="st2" d="M47,34h-6c-0.5,0-1-0.5-1-1l0,0c0-0.5,0.4-1,1-1h6c0.5,0,1,0.5,1,1l0,0C48,33.5,47.5,34,47,34z"
		/>
</g>
</svg>
