<?xml version="1.0" encoding="utf-8"?>
<!-- Generator: Adobe Illustrator 19.0.0, SVG Export Plug-In . SVG Version: 6.00 Build 0)  -->
<svg version="1.1" id="Layer_1" xmlns="http://www.w3.org/2000/svg" xmlns:xlink="http://www.w3.org/1999/xlink" x="0px" y="0px"
	 viewBox="0 0 56 56" style="enable-background:new 0 0 56 56;" xml:space="preserve">
<style type="text/css">
	.st0{opacity:0;fill:#FFFFFF;}
	.st1{fill:#FFFFFF;}
	.st2{fill:#D7F0F8;}
</style>
<g id="XMLID_2_">
	<g id="XMLID_5_">
		<rect id="XMLID_13_" x="0" class="st0" width="56" height="56"/>
		<path id="XMLID_12_" class="st1" d="M47,40H9c-0.5,0-1,0.5-1,1l0,0c0,0.5,0.4,1,1,1h38c0.5,0,1-0.5,1-1l0,0C48,40.5,47.5,40,47,40
			z"/>
		<path id="XMLID_11_" class="st2" d="M31,36h-8c-0.5,0-1,0.5-1,1l0,0c0,0.5,0.4,1,1,1h8c0.5,0,1-0.5,1-1l0,0C32,36.5,31.5,36,31,36
			z"/>
		<path id="XMLID_10_" class="st2" d="M37,32H17c-0.5,0-1,0.5-1,1l0,0c0,0.5,0.4,1,1,1h20c0.5,0,1-0.5,1-1l0,0
			C38,32.5,37.5,32,37,32z"/>
		<path id="XMLID_9_" class="st1" d="M19,36H9c-0.5,0-1,0.5-1,1l0,0c0,0.5,0.4,1,1,1h10c0.5,0,1-0.5,1-1l0,0C20,36.5,19.5,36,19,36z
			"/>
		<path id="XMLID_8_" class="st1" d="M47,36H35c-0.5,0-1,0.5-1,1l0,0c0,0.5,0.4,1,1,1h12c0.5,0,1-0.5,1-1l0,0C48,36.5,47.5,36,47,36
			z"/>
		<path id="XMLID_7_" class="st1" d="M13,32H9c-0.5,0-1,0.5-1,1l0,0c0,0.5,0.4,1,1,1h4c0.5,0,1-0.5,1-1l0,0C14,32.5,13.5,32,13,32z"
			/>
		<path id="XMLID_6_" class="st1" d="M47,34h-6c-0.5,0-1-0.5-1-1l0,0c0-0.5,0.4-1,1-1h6c0.5,0,1,0.5,1,1l0,0C48,33.5,47.5,34,47,34z
			"/>
	</g>
	<g id="XMLID_3_">
		<path id="XMLID_4_" class="st1" d="M42.1,23.2c-4.3,4.5-11.4,4.7-16,0.5c-4.5-4.1-4.9-11.1-1-15.7c-2.8,0.6-5.5,2.1-7.5,4.4
			c-4.5,5-4.7,12.4-0.9,17.6h22.9C41,27.9,41.9,25.6,42.1,23.2z"/>
	</g>
</g>
</svg>
