<?xml version="1.0" encoding="utf-8"?>
<!-- Generator: Adobe Illustrator 19.0.0, SVG Export Plug-In . SVG Version: 6.00 Build 0)  -->
<svg version="1.1" id="Layer_1" xmlns="http://www.w3.org/2000/svg" xmlns:xlink="http://www.w3.org/1999/xlink" x="0px" y="0px"
	 viewBox="0 0 56 56" style="enable-background:new 0 0 56 56;" xml:space="preserve">
<style type="text/css">
	.st0{opacity:0;fill:#FFFFFF;}
	.st1{fill:#E5E5E5;}
	.st2{fill:#FFFFFF;}
</style>
<g id="XMLID_3_">
	<rect id="XMLID_9_" x="0" class="st0" width="56" height="56"/>
	<g id="XMLID_6_">
		<path id="XMLID_8_" class="st1" d="M20.3,24.9c0-0.3,0.1-0.5,0.2-0.8c0.1-0.3,0.2-0.7,0.4-1c0.2-0.3,0.3-0.6,0.5-0.9
			c1.1-1.4,2.7-2.3,4.6-2.3c0.7,0,1.4,0.1,2.1,0.4c0.8-1.1,1.9-2.1,3.1-2.8c0-0.1,0-0.2,0-0.2c0-3.7-2.8-6.8-6.3-7.2
			c-0.3,0-0.7-0.1-1-0.1c0,0,0,0-0.1,0c-0.4,0-0.7,0-1.1,0.1c-2.6,0.4-4.8,2.2-5.7,4.7c-0.7-0.8-1.7-1.2-2.8-1.2
			c-2.1,0-3.8,1.7-3.8,3.8c0,0.2,0,0.5,0.1,0.7c-2.8,0.5-4.9,2.9-4.9,5.8c0,3.2,2.6,5.8,5.8,5.8h2.7h1.6
			C16.6,27.5,18.2,25.8,20.3,24.9z"/>
		<path id="XMLID_7_" class="st2" d="M42.9,26.4c0-0.1,0-0.3,0-0.4c0-0.1,0-0.2,0-0.3c0-0.2,0-0.5,0-0.7c0-0.3-0.1-0.7-0.2-1
			c-0.8-3.1-3.5-5.5-6.9-5.6c-0.1,0-0.2,0-0.2,0c-0.4,0-0.8,0-1.2,0.1c-0.4,0.1-0.8,0.2-1.2,0.3c-2,0.7-3.7,2.3-4.4,4.3
			c-0.7-0.8-1.7-1.2-2.8-1.2c-1.2,0-2.3,0.6-3,1.5c-0.2,0.3-0.4,0.6-0.5,0.9c-0.1,0.3-0.2,0.6-0.2,1c0,0.1,0,0.3,0,0.4
			c0,0.2,0,0.5,0.1,0.7c-1.9,0.3-3.5,1.5-4.3,3.2c-0.2,0.3-0.3,0.7-0.4,1c-0.1,0.3-0.2,0.7-0.2,1c0,0.2-0.1,0.4-0.1,0.6
			c0,3.2,2.6,5.8,5.8,5.8H26h7.7h8.2c3.2,0,5.8-2.6,5.8-5.8C47.7,29.3,45.7,26.9,42.9,26.4z"/>
	</g>
	<path id="XMLID_5_" class="st2" d="M43,40H23c-0.5,0-1,0.5-1,1l0,0c0,0.5,0.4,1,1,1h20c0.5,0,1-0.5,1-1l0,0C44,40.5,43.5,40,43,40z
		"/>
	<path id="XMLID_4_" class="st2" d="M41,44H25c-0.5,0-1,0.5-1,1l0,0c0,0.5,0.4,1,1,1h16c0.5,0,1-0.5,1-1l0,0C42,44.5,41.5,44,41,44z
		"/>
</g>
</svg>
