<?xml version="1.0" encoding="utf-8"?>
<!-- Generator: Adobe Illustrator 19.0.0, SVG Export Plug-In . SVG Version: 6.00 Build 0)  -->
<svg version="1.1" id="Layer_1" xmlns="http://www.w3.org/2000/svg" xmlns:xlink="http://www.w3.org/1999/xlink" x="0px" y="0px"
	 viewBox="0 0 56 56" style="enable-background:new 0 0 56 56;" xml:space="preserve">
<style type="text/css">
	.st0{fill:#C51F46;}
	.st1{fill:#A1A4AC;}
	.st2{opacity:0.75;fill:#898080;}
	.st3{opacity:0.5;fill:#898080;}
	.st4{fill:#8C633B;}
	.st5{fill:#898080;}
	.st6{opacity:0.2;fill:#898080;}
	.st7{opacity:0;fill:#FFFFFF;}
</style>
<g id="XMLID_11_">
	<path id="XMLID_70_" class="st0" d="M33,30H23c-0.5,0-1-0.4-1-1v0c0-0.5,0.4-1,1-1h10c0.5,0,1,0.4,1,1v0C34,29.6,33.5,30,33,30z"/>
	<path id="XMLID_69_" class="st0" d="M23,32L23,32c-0.6,0-1-0.4-1-1v-2c0-0.5,0.4-1,1-1h0c0.5,0,1,0.4,1,1v2C24,31.6,23.5,32,23,32z
		"/>
	<path id="XMLID_68_" class="st0" d="M33,34L33,34c-0.6,0-1-0.5-1-1v-4c0-0.5,0.4-1,1-1h0c0.5,0,1,0.4,1,1v4C34,33.5,33.5,34,33,34z
		"/>
	<path id="XMLID_67_" class="st0" d="M29,36L29,36c-0.6,0-1-0.5-1-1v-6c0-0.5,0.4-1,1-1h0c0.5,0,1,0.4,1,1v6C30,35.5,29.5,36,29,36z
		"/>
	<path id="XMLID_66_" class="st1" d="M33,24H23c-0.5,0-1,0.4-1,1v0c0,0.5,0.4,1,1,1h10c0.5,0,1-0.4,1-1v0C34,24.4,33.5,24,33,24z"/>
	<path id="XMLID_65_" class="st2" d="M34,24H22c-1.1,0-2-0.9-2-2v0c0-1.1,0.9-2,2-2h12c1.1,0,2,0.9,2,2v0C36,23.1,35.1,24,34,24z"/>
	<path id="XMLID_64_" class="st3" d="M19,14h14c1.6,0,3,1.3,3,3v0c0,1.6-1.4,3-3,3H19c-1.6,0-3-1.3-3-3v0C16,15.3,17.3,14,19,14z"/>
	<g id="XMLID_56_">
		<polygon id="XMLID_63_" class="st4" points="10,48 46,48 32,28 24,28 		"/>
		<circle id="XMLID_62_" class="st5" cx="37" cy="27" r="1"/>
		<circle id="XMLID_61_" class="st5" cx="19" cy="29" r="1"/>
		<circle id="XMLID_60_" class="st6" cx="15" cy="11" r="1"/>
		<circle id="XMLID_59_" class="st6" cx="40" cy="14" r="2"/>
		<circle id="XMLID_58_" class="st6" cx="9" cy="9" r="1"/>
		<circle id="XMLID_57_" class="st5" cx="41" cy="35" r="1"/>
	</g>
	<path id="XMLID_55_" class="st0" d="M33,30H23c-0.5,0-1-0.4-1-1v0c0-0.5,0.4-1,1-1h10c0.5,0,1,0.4,1,1v0C34,29.6,33.5,30,33,30z"/>
	<path id="XMLID_54_" class="st0" d="M23,32L23,32c-0.6,0-1-0.4-1-1v-2c0-0.5,0.4-1,1-1h0c0.5,0,1,0.4,1,1v2C24,31.6,23.5,32,23,32z
		"/>
	<path id="XMLID_53_" class="st0" d="M33,34L33,34c-0.6,0-1-0.5-1-1v-4c0-0.5,0.4-1,1-1h0c0.5,0,1,0.4,1,1v4C34,33.5,33.5,34,33,34z
		"/>
	<path id="XMLID_52_" class="st0" d="M29,36L29,36c-0.6,0-1-0.5-1-1v-6c0-0.5,0.4-1,1-1h0c0.5,0,1,0.4,1,1v6C30,35.5,29.5,36,29,36z
		"/>
	<path id="XMLID_51_" class="st5" d="M33,24H23c-0.5,0-1,0.4-1,1v0c0,0.5,0.4,1,1,1h10c0.5,0,1-0.4,1-1v0C34,24.4,33.5,24,33,24z"/>
	<g id="XMLID_48_">
		<g id="XMLID_49_">
			<rect id="XMLID_50_" x="0" y="0" class="st7" width="56" height="56"/>
		</g>
	</g>
</g>
</svg>
