<?xml version="1.0" encoding="utf-8"?>
<!-- Generator: Adobe Illustrator 19.0.0, SVG Export Plug-In . SVG Version: 6.00 Build 0)  -->
<svg version="1.1" id="Layer_1" xmlns="http://www.w3.org/2000/svg" xmlns:xlink="http://www.w3.org/1999/xlink" x="0px" y="0px"
	 viewBox="0 0 56 56" style="enable-background:new 0 0 56 56;" xml:space="preserve">
<style type="text/css">
	.st0{opacity:0;fill:#FFFFFF;}
	.st1{fill:#FFFFFF;}
	.st2{fill:#9FC9EB;}
</style>
<g id="XMLID_11_">
	<g id="XMLID_68_">
		<g id="XMLID_69_">
			<rect id="XMLID_71_" x="0" y="0" class="st0" width="56" height="56"/>
			<path id="XMLID_70_" class="st1" d="M41.6,20.6c0-0.3,0-0.6,0-0.9c0-5.4-4.4-9.7-9.7-9.7c-4.2,0-7.7,2.6-9.1,6.3
				c-0.9-1-2.2-1.6-3.7-1.6c-2.8,0-5,2.2-5,5c0,0.3,0,0.6,0.1,1c-3.7,0.6-6.5,3.8-6.5,7.7c0,4.3,3.5,7.8,7.8,7.8h24.7
				c4.3,0,7.8-3.5,7.8-7.8C48,24.5,45.2,21.3,41.6,20.6z"/>
		</g>
	</g>
	<g id="XMLID_64_">
		<g id="XMLID_65_">
			<polygon id="XMLID_23_" class="st2" points="16,38 14,38 12,44 14,44 			"/>
		</g>
	</g>
	<g id="XMLID_60_">
		<g id="XMLID_61_">
			<polygon id="XMLID_21_" class="st2" points="22,38 20,38 18,44 20,44 			"/>
		</g>
	</g>
	<g id="XMLID_56_">
		<g id="XMLID_57_">
			<polygon id="XMLID_19_" class="st2" points="28,38 26,38 24,44 26,44 			"/>
		</g>
	</g>
	<g id="XMLID_52_">
		<g id="XMLID_53_">
			<polygon id="XMLID_17_" class="st2" points="34,38 32,38 30,44 32,44 			"/>
		</g>
	</g>
	<g id="XMLID_48_">
		<g id="XMLID_49_">
			<polygon id="XMLID_15_" class="st2" points="40,38 38,38 36,44 38,44 			"/>
		</g>
	</g>
</g>
</svg>
