<?xml version="1.0" encoding="utf-8"?>
<!-- Generator: Adobe Illustrator 19.0.0, SVG Export Plug-In . SVG Version: 6.00 Build 0)  -->
<svg version="1.1" id="Layer_1" xmlns="http://www.w3.org/2000/svg" xmlns:xlink="http://www.w3.org/1999/xlink" x="0px" y="0px"
	 viewBox="0 0 56 56" style="enable-background:new 0 0 56 56;" xml:space="preserve">
<style type="text/css">
	.st0{opacity:0;fill:#FFFFFF;}
	.st1{fill:#FFFFFF;}
</style>
<g id="XMLID_72_">
	<g id="XMLID_79_">
		<rect id="XMLID_80_" x="0" y="0" class="st0" width="56" height="56"/>
	</g>
	<path id="XMLID_78_" class="st1" d="M45,14H9c-0.5,0-1,0.4-1,1v0c0,0.5,0.4,1,1,1h36c0.5,0,1-0.4,1-1v0C46,14.4,45.5,14,45,14z"/>
	<path id="XMLID_77_" class="st1" d="M13,22h28c0.5,0,1-0.4,1-1v0c0-0.5-0.5-1-1-1H13c-0.5,0-1,0.4-1,1v0C12,21.6,12.4,22,13,22z"/>
	<path id="XMLID_76_" class="st1" d="M47,26H19c-0.5,0-1,0.4-1,1v0c0,0.5,0.4,1,1,1h28c0.5,0,1-0.4,1-1v0C48,26.4,47.5,26,47,26z"/>
	<path id="XMLID_75_" class="st1" d="M23,34h20c0.5,0,1-0.5,1-1l0,0c0-0.5-0.5-1-1-1H23c-0.5,0-1,0.5-1,1l0,0C22,33.5,22.4,34,23,34
		z"/>
	<path id="XMLID_74_" class="st1" d="M35,38H24.3c-0.6,0-1,0.5-1,1l0,0c0,0.6,0.5,1,1,1H35c0.5,0,1-0.5,1-1l0,0
		C36,38.5,35.5,38,35,38z"/>
	<path id="XMLID_73_" class="st1" d="M29,44h-6c-0.5,0-1,0.5-1,1l0,0c0,0.5,0.4,1,1,1h6c0.5,0,1-0.5,1-1l0,0C30,44.5,29.5,44,29,44z
		"/>
</g>
</svg>
