<?xml version="1.0" encoding="utf-8"?>
<!-- Generator: Adobe Illustrator 19.0.0, SVG Export Plug-In . SVG Version: 6.00 Build 0)  -->
<svg version="1.1" id="Layer_1" xmlns="http://www.w3.org/2000/svg" xmlns:xlink="http://www.w3.org/1999/xlink" x="0px" y="0px"
	 viewBox="0 0 56 56" style="enable-background:new 0 0 56 56;" xml:space="preserve">
<style type="text/css">
	.st0{opacity:0;fill:#FFFFFF;}
	.st1{fill:#FBE200;}
</style>
<g id="XMLID_72_">
	<g id="XMLID_89_">
		<rect id="XMLID_90_" x="0" y="0" class="st0" width="56" height="56"/>
	</g>
	<g id="XMLID_73_">
		<g id="XMLID_76_">
			<g id="XMLID_86_">
				<path id="XMLID_88_" class="st1" d="M28,5L28,5c-0.6,0-1,0.4-1,1v8c0,0.5,0.5,1,1,1h0c0.5,0,1-0.4,1-1V6C29,5.4,28.5,5,28,5z"/>
				<path id="XMLID_87_" class="st1" d="M28,41L28,41c-0.6,0-1,0.5-1,1v8c0,0.5,0.5,1,1,1h0c0.5,0,1-0.5,1-1v-8
					C29,41.5,28.5,41,28,41z"/>
			</g>
			<g id="XMLID_83_">
				<path id="XMLID_85_" class="st1" d="M51,28L51,28c0-0.6-0.5-1-1-1h-8c-0.5,0-1,0.4-1,1v0c0,0.5,0.4,1,1,1h8
					C50.5,29,51,28.6,51,28z"/>
				<path id="XMLID_84_" class="st1" d="M15,28L15,28c0-0.6-0.4-1-1-1H6c-0.5,0-1,0.4-1,1v0c0,0.5,0.4,1,1,1h8
					C14.5,29,15,28.6,15,28z"/>
			</g>
			<g id="XMLID_80_">
				<path id="XMLID_82_" class="st1" d="M44.3,44.3L44.3,44.3c0.4-0.4,0.4-1,0-1.4l-5.7-5.7c-0.4-0.4-1-0.4-1.4,0v0
					c-0.4,0.4-0.4,1,0,1.4l5.7,5.7C43.2,44.7,43.9,44.7,44.3,44.3z"/>
				<path id="XMLID_81_" class="st1" d="M18.8,18.8L18.8,18.8c0.4-0.4,0.4-1,0-1.4l-5.7-5.7c-0.4-0.4-1-0.4-1.4,0l0,0
					c-0.4,0.4-0.4,1,0,1.4l5.7,5.7C17.8,19.2,18.4,19.2,18.8,18.8z"/>
			</g>
			<g id="XMLID_77_">
				<path id="XMLID_79_" class="st1" d="M11.7,44.3L11.7,44.3c0.4,0.4,1,0.4,1.4,0l5.7-5.7c0.4-0.4,0.4-1,0-1.4l0,0
					c-0.4-0.4-1-0.4-1.4,0l-5.7,5.7C11.3,43.2,11.3,43.9,11.7,44.3z"/>
				<path id="XMLID_78_" class="st1" d="M37.2,18.8L37.2,18.8c0.4,0.4,1,0.4,1.4,0l5.7-5.7c0.4-0.4,0.4-1,0-1.4v0
					c-0.4-0.4-1-0.4-1.4,0l-5.7,5.7C36.8,17.8,36.8,18.4,37.2,18.8z"/>
			</g>
		</g>
		<g id="XMLID_74_">
			<circle id="XMLID_75_" class="st1" cx="28" cy="28" r="9"/>
		</g>
	</g>
</g>
</svg>
