<?xml version="1.0" encoding="utf-8"?>
<!-- Generator: Adobe Illustrator 19.0.0, SVG Export Plug-In . SVG Version: 6.00 Build 0)  -->
<svg version="1.1" id="Layer_1" xmlns="http://www.w3.org/2000/svg" xmlns:xlink="http://www.w3.org/1999/xlink" x="0px" y="0px"
	 viewBox="0 0 56 56" style="enable-background:new 0 0 56 56;" xml:space="preserve">
<style type="text/css">
	.st0{opacity:0;fill:#FFFFFF;}
	.st1{fill:#FFFFFF;}
</style>
<g id="XMLID_91_">
	<rect id="XMLID_100_" x="0" y="0" class="st0" width="56" height="56"/>
	<path id="XMLID_99_" class="st1" d="M29.2,43.3c2.9-1.1,5.2-3.1,6.8-5.5c-5.9,2-12.3-1.1-14.4-6.9c-2-5.7,0.8-12.1,6.4-14.4
		c-2.8-0.8-5.8-0.7-8.7,0.4C12,19.6,8.3,27.8,11,35.1C13.8,42.3,21.9,46,29.2,43.3z"/>
	<rect id="XMLID_98_" x="34" y="10" class="st1" width="2" height="2"/>
	<g id="XMLID_95_">
		<rect id="XMLID_97_" x="44" y="12" class="st1" width="2" height="6"/>
		<rect id="XMLID_96_" x="42" y="14" class="st1" width="6" height="2"/>
	</g>
	<g id="XMLID_92_">
		<rect id="XMLID_94_" x="36" y="20" class="st1" width="2" height="6"/>
		<rect id="XMLID_93_" x="34" y="22" class="st1" width="6" height="2"/>
	</g>
</g>
</svg>
