<?xml version="1.0" encoding="utf-8"?>
<!-- Generator: Adobe Illustrator 19.0.0, SVG Export Plug-In . SVG Version: 6.00 Build 0)  -->
<svg version="1.1" id="Layer_1" xmlns="http://www.w3.org/2000/svg" xmlns:xlink="http://www.w3.org/1999/xlink" x="0px" y="0px"
	 viewBox="0 0 56 56" style="enable-background:new 0 0 56 56;" xml:space="preserve">
<style type="text/css">
	.st0{opacity:0;fill:#FFFFFF;}
	.st1{fill:#FBE200;}
	.st2{fill:#FFFFFF;}
</style>
<g id="XMLID_91_">
	<rect id="XMLID_95_" x="0" y="0" class="st0" width="56" height="56"/>
	<g id="XMLID_93_">
		<path id="XMLID_94_" class="st1" d="M21.4,20.3c0.9,0,1.8,0.2,2.6,0.5c0-0.3,0-0.6,0-0.8c0-4.4-3.6-8-8-8c-4.4,0-8,3.6-8,8
			c0,3.3,2,6.1,4.8,7.3c0.6-0.4,1.2-0.8,2-1C15.1,22.9,17.9,20.3,21.4,20.3z"/>
	</g>
	<path id="XMLID_92_" class="st2" d="M42.1,27.8c0-0.3,0-0.6,0-0.8c0-5-4-9-9-9c-3.8,0-7.1,2.4-8.4,5.8c-0.8-0.9-2.1-1.5-3.4-1.5
		c-2.6,0-4.6,2.1-4.6,4.6c0,0.3,0,0.6,0.1,0.9c-3.4,0.6-6,3.5-6,7.1c0,4,3.2,7.2,7.2,7.2h22.8c4,0,7.2-3.2,7.2-7.2
		C48,31.4,45.5,28.4,42.1,27.8z"/>
</g>
</svg>
