<?xml version="1.0" encoding="utf-8"?>
<!-- Generator: Adobe Illustrator 19.0.0, SVG Export Plug-In . SVG Version: 6.00 Build 0)  -->
<svg version="1.1" id="Layer_1" xmlns="http://www.w3.org/2000/svg" xmlns:xlink="http://www.w3.org/1999/xlink" x="0px" y="0px"
	 viewBox="0 0 56 56" style="enable-background:new 0 0 56 56;" xml:space="preserve">
<style type="text/css">
	.st0{opacity:0;fill:#FFFFFF;}
	.st1{fill:#FFFFFF;}
	.st2{fill:#A1A4AC;}
</style>
<g id="XMLID_91_">
	<rect id="XMLID_103_" x="0" y="0" class="st0" width="56" height="56"/>
	<g id="XMLID_92_">
		<g id="XMLID_101_">
			<path id="XMLID_102_" class="st1" d="M46.2,23.5c1.6-0.6,2.8-1.6,3.6-2.9c-3.2,1.1-6.6-0.6-7.7-3.7c-1.1-3.1,0.4-6.5,3.4-7.7
				c-1.5-0.4-3.1-0.4-4.7,0.2c-3.4,1.3-5.3,4.8-4.8,8.3c2.2,1.3,3.8,3.4,4.7,5.8C42.4,24.1,44.4,24.2,46.2,23.5z"/>
		</g>
		<rect id="XMLID_100_" x="8" y="8" class="st1" width="2" height="2"/>
		<g id="XMLID_97_">
			<rect id="XMLID_99_" x="20" y="8" class="st1" width="2" height="6"/>
			<rect id="XMLID_98_" x="18" y="10" class="st1" width="6" height="2"/>
		</g>
		<g id="XMLID_94_">
			<rect id="XMLID_96_" x="10" y="16" class="st1" width="2" height="6"/>
			<rect id="XMLID_95_" x="8" y="18" class="st1" width="6" height="2"/>
		</g>
		<path id="XMLID_93_" class="st2" d="M39.3,27.8c0-0.3,0-0.6,0-0.8c0-5-4-9-9-9c-3.8,0-7.1,2.4-8.4,5.8c-0.8-0.9-2.1-1.5-3.4-1.5
			c-2.6,0-4.6,2.1-4.6,4.6c0,0.3,0,0.6,0.1,0.9c-3.4,0.6-6,3.5-6,7.1c0,4,3.2,7.2,7.2,7.2H38c4,0,7.2-3.2,7.2-7.2
			C45.2,31.4,42.6,28.4,39.3,27.8z"/>
	</g>
</g>
</svg>
