<?xml version="1.0" encoding="utf-8"?>
<!-- Generator: Adobe Illustrator 19.0.0, SVG Export Plug-In . SVG Version: 6.00 Build 0)  -->
<svg version="1.1" id="Layer_1" xmlns="http://www.w3.org/2000/svg" xmlns:xlink="http://www.w3.org/1999/xlink" x="0px" y="0px"
	 viewBox="0 0 56 56" style="enable-background:new 0 0 56 56;" xml:space="preserve">
<style type="text/css">
	.st0{opacity:0;fill:#A1A4AC;}
	.st1{fill:#A1A4AC;}
</style>
<g id="XMLID_91_">
	<rect id="XMLID_98_" x="0" y="0" class="st0" width="56" height="56"/>
	<g id="XMLID_96_">
		<path id="XMLID_97_" class="st1" d="M45.4,36.4c0-0.1,0-0.3,0-0.4c0-0.1,0-0.2,0-0.3c0-0.2,0-0.5,0-0.7c0-0.3-0.1-0.7-0.2-1
			c-0.8-3.1-3.5-5.5-6.9-5.6c-0.1,0-0.2,0-0.2,0c-0.4,0-0.8,0-1.2,0.1c-0.4,0.1-0.8,0.2-1.2,0.3c-2,0.7-3.7,2.3-4.4,4.3
			c-0.7-0.8-1.7-1.2-2.8-1.2c-1.2,0-2.3,0.6-3,1.5c-0.2,0.3-0.4,0.6-0.5,0.9c-0.1,0.3-0.2,0.6-0.2,1c0,0.1,0,0.3,0,0.4
			c0,0.2,0,0.5,0.1,0.7c-1.9,0.3-3.5,1.5-4.3,3.2c-0.2,0.3-0.3,0.7-0.4,1c-0.1,0.3-0.2,0.7-0.2,1c0,0.2-0.1,0.4-0.1,0.6
			c0,3.2,2.6,5.8,5.8,5.8h2.7h7.7h8.2c3.2,0,5.8-2.6,5.8-5.8C50.2,39.3,48.1,36.9,45.4,36.4z"/>
	</g>
	<g id="XMLID_94_">
		<path id="XMLID_95_" class="st1" d="M33.8,11.1c0-0.1,0-0.1,0-0.2c0,0,0-0.1,0-0.1c0-0.1,0-0.2,0-0.3c0-0.1,0-0.3-0.1-0.4
			C33.4,9,32.4,8,31.1,8C31,8,31,8,31,8c-0.2,0-0.3,0-0.4,0c-0.2,0-0.3,0.1-0.5,0.1c-0.8,0.3-1.4,0.9-1.7,1.7
			c-0.3-0.3-0.6-0.5-1.1-0.5c-0.5,0-0.9,0.2-1.2,0.6c-0.1,0.1-0.1,0.2-0.2,0.3c0,0.1-0.1,0.3-0.1,0.4c0,0.1,0,0.1,0,0.2
			c0,0.1,0,0.2,0,0.3c-0.7,0.1-1.3,0.6-1.7,1.2c-0.1,0.1-0.1,0.3-0.1,0.4c0,0.1-0.1,0.3-0.1,0.4c0,0.1,0,0.1,0,0.2
			c0,1.3,1,2.3,2.3,2.3h1h3h3.2c1.3,0,2.3-1,2.3-2.3C35.6,12.2,34.8,11.3,33.8,11.1z"/>
	</g>
	<g id="XMLID_92_">
		<path id="XMLID_93_" class="st1" d="M21.1,24.7c0-0.1,0-0.2,0-0.2c0-0.1,0-0.1,0-0.2c0-0.1,0-0.3,0-0.4c0-0.2-0.1-0.4-0.1-0.6
			c-0.4-1.9-2.1-3.2-4.1-3.3c0,0-0.1,0-0.1,0c-0.2,0-0.5,0-0.7,0.1c-0.3,0-0.5,0.1-0.7,0.2c-1.2,0.4-2.2,1.4-2.6,2.6
			c-0.4-0.4-1-0.7-1.6-0.7c-0.7,0-1.4,0.4-1.8,0.9c-0.1,0.2-0.2,0.3-0.3,0.5c-0.1,0.2-0.1,0.4-0.1,0.6c0,0.1,0,0.2,0,0.2
			c0,0.1,0,0.3,0,0.4c-1.1,0.2-2.1,0.9-2.5,1.9c-0.1,0.2-0.2,0.4-0.2,0.6C6.1,27.4,6,27.6,6,27.8c0,0.1,0,0.2,0,0.3
			c0,1.9,1.5,3.5,3.5,3.5h1.6h4.6h4.8c1.9,0,3.5-1.5,3.5-3.5C23.9,26.4,22.7,25,21.1,24.7z"/>
	</g>
</g>
</svg>
