<?xml version="1.0" encoding="utf-8"?>
<!-- Generator: Adobe Illustrator 19.0.0, SVG Export Plug-In . SVG Version: 6.00 Build 0)  -->
<svg version="1.1" id="Layer_1" xmlns="http://www.w3.org/2000/svg" xmlns:xlink="http://www.w3.org/1999/xlink" x="0px" y="0px"
	 viewBox="0 0 56 56" style="enable-background:new 0 0 56 56;" xml:space="preserve">
<style type="text/css">
	.st0{fill:#FFFFFF;}
	.st1{opacity:0;fill:#FFFFFF;}
	.st2{fill:#A1A4AC;}
</style>
<g id="XMLID_91_">
	<g id="XMLID_98_">
		<path id="XMLID_103_" class="st0" d="M36.4,21.5c1.6-0.6,2.8-1.6,3.6-2.9c-3.2,1.1-6.6-0.6-7.7-3.7c-1.1-3.1,0.4-6.5,3.4-7.7
			c-1.5-0.4-3.1-0.4-4.7,0.2c-3.9,1.5-5.9,5.9-4.4,9.7C28.1,21,32.5,23,36.4,21.5z"/>
		<rect id="XMLID_102_" x="42" y="8" class="st0" width="2" height="2"/>
		<g id="XMLID_99_">
			<rect id="XMLID_101_" x="46" y="18" class="st0" width="2" height="6"/>
			<rect id="XMLID_100_" x="44" y="20" class="st0" width="6" height="2"/>
		</g>
	</g>
	<g id="XMLID_92_">
		<rect id="XMLID_97_" x="0" y="0" class="st1" width="56" height="56"/>
		<g id="XMLID_95_">
			<path id="XMLID_96_" class="st2" d="M45.4,36.4c0-0.1,0-0.3,0-0.4c0-0.1,0-0.2,0-0.3c0-0.2,0-0.5,0-0.7c0-0.3-0.1-0.7-0.2-1
				c-0.8-3.1-3.5-5.5-6.9-5.6c-0.1,0-0.2,0-0.2,0c-0.4,0-0.8,0-1.2,0.1c-0.4,0.1-0.8,0.2-1.2,0.3c-2,0.7-3.7,2.3-4.4,4.3
				c-0.7-0.8-1.7-1.2-2.8-1.2c-1.2,0-2.3,0.6-3,1.5c-0.2,0.3-0.4,0.6-0.5,0.9c-0.1,0.3-0.2,0.6-0.2,1c0,0.1,0,0.3,0,0.4
				c0,0.2,0,0.5,0.1,0.7c-1.9,0.3-3.5,1.5-4.3,3.2c-0.2,0.3-0.3,0.7-0.4,1c-0.1,0.3-0.2,0.7-0.2,1c0,0.2-0.1,0.4-0.1,0.6
				c0,3.2,2.6,5.8,5.8,5.8h2.7h7.7h8.2c3.2,0,5.8-2.6,5.8-5.8C50.2,39.3,48.1,36.9,45.4,36.4z"/>
		</g>
		<g id="XMLID_93_">
			<path id="XMLID_94_" class="st2" d="M21.1,24.7c0-0.1,0-0.2,0-0.2c0-0.1,0-0.1,0-0.2c0-0.1,0-0.3,0-0.4c0-0.2-0.1-0.4-0.1-0.6
				c-0.4-1.9-2.1-3.2-4.1-3.3c0,0-0.1,0-0.1,0c-0.2,0-0.5,0-0.7,0.1c-0.3,0-0.5,0.1-0.7,0.2c-1.2,0.4-2.2,1.4-2.6,2.6
				c-0.4-0.4-1-0.7-1.6-0.7c-0.7,0-1.4,0.4-1.8,0.9c-0.1,0.2-0.2,0.3-0.3,0.5c-0.1,0.2-0.1,0.4-0.1,0.6c0,0.1,0,0.2,0,0.2
				c0,0.1,0,0.3,0,0.4c-1.1,0.2-2.1,0.9-2.5,1.9c-0.1,0.2-0.2,0.4-0.2,0.6C6.1,27.4,6,27.6,6,27.8c0,0.1,0,0.2,0,0.3
				c0,1.9,1.5,3.5,3.5,3.5h1.6h4.6h4.8c1.9,0,3.5-1.5,3.5-3.5C23.9,26.4,22.7,25,21.1,24.7z"/>
		</g>
	</g>
</g>
</svg>
