<?xml version="1.0" encoding="utf-8"?>
<!-- Generator: Adobe Illustrator 19.0.0, SVG Export Plug-In . SVG Version: 6.00 Build 0)  -->
<svg version="1.1" id="Layer_1" xmlns="http://www.w3.org/2000/svg" xmlns:xlink="http://www.w3.org/1999/xlink" x="0px" y="0px"
	 viewBox="0 0 56 56" style="enable-background:new 0 0 56 56;" xml:space="preserve">
<style type="text/css">
	.st0{opacity:0;fill:#FFFFFF;}
	.st1{fill:#FFFFFF;}
</style>
<g id="XMLID_91_">
	<g id="XMLID_94_">
		<rect id="XMLID_99_" x="0" y="0" class="st0" width="56" height="56"/>
		<g id="XMLID_95_">
			<path id="XMLID_98_" class="st1" d="M45.4,23.7c0-0.2,0-0.4,0-0.7c0-3.9-3.2-7.1-7.1-7.1c-3,0-5.6,1.9-6.6,4.6
				c-0.7-0.7-1.6-1.2-2.7-1.2c-0.6,0-1.2,0.2-1.7,0.4c3.5,1,6.1,4.1,6.4,7.9c0.1,0,0.2,0.1,0.3,0.1c0.7-0.2,1.4-0.3,2.1-0.3
				c4.4,0,8,3.2,8.8,7.3c2.8-0.3,5-2.7,5-5.6C50,26.5,48,24.2,45.4,23.7z"/>
			<path id="XMLID_97_" class="st1" d="M21.3,35.8c0-0.3,0.1-0.5,0.2-0.7c0.1-0.3,0.2-0.7,0.4-1c0.1-0.3,0.3-0.6,0.5-0.8
				c1-1.4,2.6-2.3,4.5-2.3c0.7,0,1.4,0.1,2,0.4c0.8-1.1,1.8-2,3-2.7c0-0.1,0-0.1,0-0.2c0-3.6-2.7-6.5-6.1-7c-0.3,0-0.6-0.1-1-0.1
				c0,0,0,0-0.1,0c-0.4,0-0.7,0-1,0.1c-2.5,0.4-4.6,2.2-5.5,4.5c-0.7-0.7-1.6-1.2-2.7-1.2c-2,0-3.6,1.6-3.6,3.6c0,0.2,0,0.5,0.1,0.7
				c-2.7,0.4-4.7,2.8-4.7,5.6c0,3.1,2.5,5.7,5.7,5.7h2.6H17C17.7,38.3,19.3,36.6,21.3,35.8z"/>
			<path id="XMLID_96_" class="st1" d="M43.2,37.3c0-0.1,0-0.3,0-0.4c0-0.1,0-0.2,0-0.3c0-0.2,0-0.5,0-0.7c0-0.3-0.1-0.7-0.2-1
				c-0.7-3-3.4-5.3-6.6-5.4c-0.1,0-0.1,0-0.2,0c-0.4,0-0.8,0-1.1,0.1c-0.4,0.1-0.8,0.2-1.2,0.3c-2,0.7-3.6,2.2-4.3,4.2
				c-0.7-0.7-1.6-1.2-2.7-1.2c-1.2,0-2.2,0.6-2.9,1.5c-0.2,0.3-0.4,0.5-0.5,0.8c-0.1,0.3-0.2,0.6-0.2,1c0,0.1,0,0.3,0,0.4
				c0,0.2,0,0.5,0.1,0.7c-1.8,0.3-3.4,1.5-4.1,3.1c-0.2,0.3-0.3,0.6-0.4,1c-0.1,0.3-0.1,0.6-0.2,1c0,0.2,0,0.4,0,0.5
				c0,3.1,2.5,5.7,5.7,5.7h2.6h7.4h7.9c3.1,0,5.7-2.5,5.7-5.7C47.8,40.1,45.8,37.8,43.2,37.3z"/>
		</g>
	</g>
	<g id="XMLID_92_">
		<path id="XMLID_93_" class="st1" d="M19.8,14.7c0-0.1,0-0.1,0-0.2c0,0,0-0.1,0-0.1c0-0.1,0-0.2,0-0.3c0-0.2,0-0.3-0.1-0.5
			c-0.3-1.4-1.6-2.5-3.2-2.6c0,0-0.1,0-0.1,0c-0.2,0-0.4,0-0.5,0c-0.2,0-0.4,0.1-0.6,0.1c-0.9,0.3-1.7,1.1-2,2
			c-0.3-0.3-0.8-0.6-1.3-0.6c-0.6,0-1.1,0.3-1.4,0.7c-0.1,0.1-0.2,0.3-0.2,0.4c-0.1,0.1-0.1,0.3-0.1,0.5c0,0.1,0,0.1,0,0.2
			c0,0.1,0,0.2,0,0.3c-0.9,0.1-1.6,0.7-2,1.5c-0.1,0.1-0.1,0.3-0.2,0.5c0,0.1-0.1,0.3-0.1,0.5c0,0.1,0,0.2,0,0.3
			c0,1.5,1.2,2.7,2.7,2.7H12h3.5h3.8c1.5,0,2.7-1.2,2.7-2.7C22,16,21,14.9,19.8,14.7z"/>
	</g>
</g>
</svg>
