<?xml version="1.0" encoding="utf-8"?>
<!-- Generator: Adobe Illustrator 19.0.0, SVG Export Plug-In . SVG Version: 6.00 Build 0)  -->
<svg version="1.1" id="Layer_1" xmlns="http://www.w3.org/2000/svg" xmlns:xlink="http://www.w3.org/1999/xlink" x="0px" y="0px"
	 viewBox="0 0 56 56" style="enable-background:new 0 0 56 56;" xml:space="preserve">
<style type="text/css">
	.st0{opacity:0;fill:#FFFFFF;}
	.st1{fill:#9FC9EB;}
	.st2{fill:#FFFFFF;}
</style>
<g id="XMLID_91_">
	<rect id="XMLID_97_" x="0" y="0" class="st0" width="56" height="56"/>
	<g id="XMLID_92_">
		<path id="XMLID_94_" class="st1" d="M40.8,14.2c-1.6-1.2-3.7-1.9-6.1-1.9c-5.1,0-11.1,2.9-16,7.8c-4.1,4-4.8,10.3-1.9,15.3
			c0.5,0.9,1.2,1.7,1.9,2.5c0.2,0.2,0.3,0.3,0.5,0.4c-2.1,1.5-3.5,2.2-4.2,2.4c-0.7,0.2-1.2,0.7-1.3,1.3c-0.1,0.7,0.1,1.3,0.6,1.8
			c1.6,1.2,3.7,1.9,6.1,1.9c5.1,0,11.1-2.9,16-7.8c4.1-4,4.8-10.3,1.9-15.2c-0.5-0.9-1.2-1.7-1.9-2.5c-0.2-0.2-0.3-0.3-0.5-0.4
			c2.1-1.5,3.5-2.3,4.2-2.4c0.7-0.1,1.2-0.7,1.3-1.3C41.6,15.3,41.3,14.6,40.8,14.2z M27.5,36.8c-4.3,0-7.9-3.5-7.9-7.9
			c0-4.3,3.5-7.9,7.9-7.9c4.3,0,7.9,3.5,7.9,7.9C35.4,33.3,31.8,36.8,27.5,36.8z"/>
		<circle id="XMLID_93_" class="st2" cx="27.5" cy="29" r="4.1"/>
	</g>
</g>
</svg>
