<?xml version="1.0" encoding="utf-8"?>
<!-- Generator: Adobe Illustrator 19.0.0, SVG Export Plug-In . SVG Version: 6.00 Build 0)  -->
<svg version="1.1" id="Layer_1" xmlns="http://www.w3.org/2000/svg" xmlns:xlink="http://www.w3.org/1999/xlink" x="0px" y="0px"
	 viewBox="0 0 56 56" style="enable-background:new 0 0 56 56;" xml:space="preserve">
<style type="text/css">
	.st0{opacity:0;fill:#FFFFFF;}
	.st1{fill:#FFFFFF;}
	.st2{fill:#27AAE1;}
</style>
<g id="XMLID_91_">
	<rect id="XMLID_98_" x="0" y="0" class="st0" width="56" height="56"/>
	<g id="XMLID_92_">
		<path id="XMLID_97_" class="st1" d="M26.9,28.1c-0.5-0.3-0.9-0.5-1.4-0.8c0-0.4,0-0.8,0-1.1c0.5,0,0.9,0,1.4,0
			c0.2,0,0.4-0.1,0.6-0.2v-1.9c-0.2-0.1-0.3-0.2-0.6-0.2c-0.5,0-0.9,0-1.4,0c0-0.3,0-0.7,0-1c0.5-0.3,0.9-0.5,1.4-0.8
			c0.2,0,0.4,0.1,0.6,0.1v-5.1c-0.4,0-0.8,0.2-1,0.8c-0.2,0.7-0.5,1.5-0.7,2.2c-0.5,0.3-0.9,0.5-1.4,0.8c-0.3-0.2-0.6-0.4-1-0.6
			c0.2-0.4,0.5-0.8,0.7-1.3c0.7-1.2-1.2-2.3-1.9-1.1c-0.2,0.4-0.5,0.9-0.7,1.3c-0.3-0.2-0.6-0.3-0.9-0.5c0-0.5,0-1.1,0-1.6
			c0.5-0.6,1.1-1.1,1.6-1.7c0.4-0.4,0.4-1.1,0-1.6c-0.4-0.4-1.1-0.4-1.6,0c0,0,0,0,0,0c0-0.4,0-0.7,0-1.1c0-1.4-2.2-1.4-2.2,0
			c0,0.4,0,0.7,0,1.1c0,0,0,0,0,0c-0.4-0.4-1.1-0.4-1.6,0c-0.4,0.4-0.4,1.1,0,1.6c0.5,0.6,1.1,1.1,1.6,1.7c0,0.5,0,1.1,0,1.6
			c-0.3,0.2-0.6,0.3-0.9,0.5c-0.2-0.4-0.5-0.9-0.7-1.3c-0.7-1.2-2.6-0.1-1.9,1.1c0.2,0.4,0.5,0.8,0.7,1.3c-0.3,0.2-0.6,0.4-1,0.6
			c-0.5-0.3-0.9-0.5-1.4-0.8c-0.2-0.7-0.5-1.5-0.7-2.2c-0.4-1.4-2.5-0.8-2.1,0.6c0,0,0,0,0,0c-0.3-0.2-0.6-0.3-0.9-0.5
			c-1.2-0.7-2.3,1.2-1.1,1.9c0.3,0.2,0.6,0.4,0.9,0.5c0,0,0,0-0.1,0C8,20.9,8.6,23.1,10,22.7c0.8-0.2,1.5-0.4,2.3-0.5
			c0.5,0.3,0.9,0.5,1.4,0.8c0,0.3,0,0.7,0,1c-0.5,0-0.9,0-1.4,0c-1.4,0-1.4,2.2,0,2.2c0.5,0,0.9,0,1.4,0c0,0.4,0,0.8,0,1.1
			c-0.5,0.3-0.9,0.5-1.4,0.8c-0.8-0.2-1.5-0.4-2.3-0.5c-1.4-0.3-2,1.8-0.6,2.1c0,0,0,0,0.1,0c-0.3,0.2-0.6,0.4-0.9,0.5
			c-1.2,0.7-0.1,2.6,1.1,1.9c0.3-0.2,0.6-0.3,0.9-0.5c0,0,0,0,0,0c-0.4,1.4,1.7,1.9,2.1,0.6c0.2-0.7,0.5-1.5,0.7-2.2
			c0.5-0.3,0.9-0.5,1.4-0.8c0.3,0.2,0.6,0.3,0.9,0.5c-0.2,0.4-0.4,0.8-0.7,1.2c-0.7,1.2,1.2,2.3,1.9,1.1c0.2-0.4,0.5-0.8,0.7-1.2
			c0.3,0.2,0.6,0.4,1,0.6c0,0.5,0,1.1,0,1.6c-0.5,0.6-1.1,1.1-1.6,1.7c-0.4,0.4-0.4,1.1,0,1.6c0.4,0.4,1.1,0.4,1.6,0c0,0,0,0,0,0
			c0,0.4,0,0.7,0,1.1c0,1.4,2.2,1.4,2.2,0c0-0.4,0-0.7,0-1.1c0,0,0,0,0,0c0.4,0.4,1.1,0.4,1.6,0c0.4-0.4,0.4-1.1,0-1.6
			c-0.5-0.6-1.1-1.1-1.6-1.7c0-0.5,0-1.1,0-1.6c0.3-0.2,0.6-0.4,1-0.6c0.2,0.4,0.4,0.8,0.7,1.2c0.7,1.2,2.6,0.1,1.9-1.1
			c-0.2-0.4-0.4-0.8-0.7-1.2c0.3-0.2,0.6-0.3,0.9-0.5c0.5,0.3,0.9,0.5,1.4,0.8c0.2,0.7,0.5,1.5,0.7,2.2c0.2,0.5,0.6,0.8,1,0.8V28
			C27.3,28.1,27.1,28.1,26.9,28.1z"/>
		<g id="XMLID_93_">
			<path id="XMLID_95_" class="st1" d="M26.1,42c0-2.7,1.4-5.1,3.4-6.5V14.1c0-2.5,2-4.5,4.5-4.5c2.5,0,4.5,2,4.5,4.5v21.4
				c2.1,1.4,3.5,3.8,3.5,6.5c0,4.4-3.6,8-8,8C29.6,50,26.1,46.4,26.1,42z"/>
			<path id="XMLID_94_" class="st2" d="M35.4,38.3V32h-2.6v6.3c-1.6,0.5-2.7,2-2.7,3.8c0,2.2,1.8,4,4,4c2.2,0,4-1.8,4-4
				C38.1,40.3,36.9,38.8,35.4,38.3z"/>
		</g>
	</g>
</g>
</svg>
