<?xml version="1.0" encoding="utf-8"?>
<!-- Generator: Adobe Illustrator 19.0.0, SVG Export Plug-In . SVG Version: 6.00 Build 0)  -->
<svg version="1.1" id="Layer_1" xmlns="http://www.w3.org/2000/svg" xmlns:xlink="http://www.w3.org/1999/xlink" x="0px" y="0px"
	 viewBox="0 0 56 56" style="enable-background:new 0 0 56 56;" xml:space="preserve">
<style type="text/css">
	.st0{opacity:0;fill:#FFFFFF;}
	.st1{fill:#FFFFFF;}
	.st2{fill:#BE1E2D;}
</style>
<g id="XMLID_91_">
	<rect id="XMLID_96_" x="0" y="0" class="st0" width="56" height="56"/>
	<g id="XMLID_92_">
		<path id="XMLID_94_" class="st1" d="M20.1,40.5c0-2.7,1.4-5.1,3.4-6.5V12.5c0-2.5,2-4.5,4.5-4.5c2.5,0,4.5,2,4.5,4.5v21.4
			c2.1,1.4,3.5,3.8,3.5,6.5c0,4.4-3.6,8-8,8C23.6,48.4,20.1,44.9,20.1,40.5z"/>
		<path id="XMLID_93_" class="st2" d="M29.4,36.7v-15h-2.6v15c-1.6,0.5-2.7,2-2.7,3.8c0,2.2,1.8,4,4,4c2.2,0,4-1.8,4-4
			C32.1,38.7,30.9,37.3,29.4,36.7z"/>
	</g>
</g>
</svg>
