<?xml version="1.0" encoding="utf-8"?>
<!-- Generator: Adobe Illustrator 19.0.0, SVG Export Plug-In . SVG Version: 6.00 Build 0)  -->
<svg version="1.1" id="Layer_1" xmlns="http://www.w3.org/2000/svg" xmlns:xlink="http://www.w3.org/1999/xlink" x="0px" y="0px"
	 viewBox="0 0 56 56" style="enable-background:new 0 0 56 56;" xml:space="preserve">
<style type="text/css">
	.st0{opacity:0;fill:#FFFFFF;}
	.st1{fill:#FFFFFF;}
</style>
<g id="XMLID_132_">
	<rect id="XMLID_144_" x="0" y="0" class="st0" width="56" height="56"/>
	<path id="XMLID_143_" class="st1" d="M32.9,27.9H13.7c-0.7,0-1.3,0.6-1.3,1.3c0,0.7,0.6,1.3,1.3,1.3h19.3c2.5,0,4.5,2,4.5,4.5
		c0,2.5-2,4.5-4.5,4.5c-0.7,0-1.3,0.6-1.3,1.3c0,0.7,0.6,1.3,1.3,1.3c3.9,0,7.1-3.2,7.1-7.1S36.8,27.9,32.9,27.9z"/>
	<path id="XMLID_142_" class="st1" d="M27.1,34h-14c-0.6,0-1.2,0.5-1.2,1.2c0,0.6,0.5,1.2,1.2,1.2h14c0.3,0,0.6,0.3,0.6,0.6
		c0,0.3-0.3,0.6-0.6,0.6c-0.6,0-1.2,0.5-1.2,1.2c0,0.6,0.5,1.2,1.2,1.2c1.6,0,2.9-1.3,2.9-2.9C30,35.3,28.7,34,27.1,34z"/>
	<path id="XMLID_141_" class="st1" d="M43.5,22.2c-0.6,0-1.2,0.5-1.2,1.2c0,0.6,0.5,1.2,1.2,1.2c0.3,0,0.6,0.3,0.6,0.6
		c0,0.3-0.3,0.6-0.6,0.6h-2.3c-0.6,0-1.2,0.5-1.2,1.2c0,0.6,0.5,1.2,1.2,1.2h2.3c1.6,0,2.9-1.3,2.9-2.9
		C46.4,23.5,45.1,22.2,43.5,22.2z"/>
	<path id="XMLID_140_" class="st1" d="M13.3,24.5H35c2.9,0,5.2-2.4,5.2-5.2S37.9,14,35,14c-2.9,0-5.2,2.4-5.2,5.2
		c0,0.7,0.6,1.3,1.3,1.3c0.7,0,1.3-0.6,1.3-1.3c0-1.4,1.2-2.6,2.6-2.6c1.4,0,2.6,1.2,2.6,2.6s-1.2,2.6-2.6,2.6H13.3
		c-0.7,0-1.3,0.6-1.3,1.3C12,23.9,12.6,24.5,13.3,24.5z"/>
</g>
</svg>
