<?xml version="1.0" encoding="utf-8"?>
<!-- Generator: Adobe Illustrator 19.0.0, SVG Export Plug-In . SVG Version: 6.00 Build 0)  -->
<svg version="1.1" id="Layer_1" xmlns="http://www.w3.org/2000/svg" xmlns:xlink="http://www.w3.org/1999/xlink" x="0px" y="0px"
	 viewBox="0 0 56 56" style="enable-background:new 0 0 56 56;" xml:space="preserve">
<style type="text/css">
	.st0{opacity:0;fill:#FFFFFF;}
	.st1{fill:#D1D3D4;}
</style>
<g id="XMLID_145_">
	<rect id="XMLID_150_" x="0" y="0" class="st0" width="56" height="56"/>
	<path id="XMLID_149_" class="st1" d="M36.9,27.9H7.7c-0.7,0-1.3,0.6-1.3,1.3c0,0.7,0.6,1.3,1.3,1.3h29.3c2.5,0,4.5,2,4.5,4.5
		c0,2.5-2,4.5-4.5,4.5c-0.7,0-1.3,0.6-1.3,1.3c0,0.7,0.6,1.3,1.3,1.3c3.9,0,7.1-3.2,7.1-7.1S40.8,27.9,36.9,27.9z"/>
	<path id="XMLID_148_" class="st1" d="M31.1,34h-24C6.5,34,6,34.5,6,35.2c0,0.6,0.5,1.2,1.2,1.2h24c0.3,0,0.6,0.3,0.6,0.6
		c0,0.3-0.3,0.6-0.6,0.6c-0.6,0-1.2,0.5-1.2,1.2c0,0.6,0.5,1.2,1.2,1.2c1.6,0,2.9-1.3,2.9-2.9C34,35.3,32.7,34,31.1,34z"/>
	<path id="XMLID_147_" class="st1" d="M47.5,22.2c-0.6,0-1.2,0.5-1.2,1.2c0,0.6,0.5,1.2,1.2,1.2c0.3,0,0.6,0.3,0.6,0.6
		c0,0.3-0.3,0.6-0.6,0.6h-2.3c-0.6,0-1.2,0.5-1.2,1.2c0,0.6,0.5,1.2,1.2,1.2h2.3c1.6,0,2.9-1.3,2.9-2.9
		C50.4,23.5,49.1,22.2,47.5,22.2z"/>
	<path id="XMLID_146_" class="st1" d="M7.3,24.5H39c2.9,0,5.2-2.4,5.2-5.2S41.9,14,39,14c-2.9,0-5.2,2.4-5.2,5.2
		c0,0.7,0.6,1.3,1.3,1.3c0.7,0,1.3-0.6,1.3-1.3c0-1.4,1.2-2.6,2.6-2.6c1.4,0,2.6,1.2,2.6,2.6s-1.2,2.6-2.6,2.6H7.3
		c-0.7,0-1.3,0.6-1.3,1.3C6,23.9,6.6,24.5,7.3,24.5z"/>
</g>
</svg>
