<?xml version="1.0" encoding="utf-8"?>
<!-- Generator: Adobe Illustrator 19.0.0, SVG Export Plug-In . SVG Version: 6.00 Build 0)  -->
<svg version="1.1" id="Layer_1" xmlns="http://www.w3.org/2000/svg" xmlns:xlink="http://www.w3.org/1999/xlink" x="0px" y="0px"
	 viewBox="0 0 100 136" style="enable-background:new 0 0 100 136;" xml:space="preserve">
<style type="text/css">
	.st0{fill:#FFFFFF;}
	.st1{font-family:'OpenSans';}
	.st2{font-size:15px;}
</style>
<path id="XMLID_6_" class="st0" d="M38.8,122.3c0,1.1,0.6,1.6,1.9,1.6c1.7,0,2.6-0.9,2.6-2.6v-1.1c-0.5-0.1-0.9-0.1-1.1-0.1
	C39.9,120.1,38.8,120.9,38.8,122.3z"/>
<path id="XMLID_49_" class="st0" d="M80.5,92.6c-1.9,0-2,2-2.1,2.7h3.8C82.2,94.4,82.2,92.6,80.5,92.6z"/>
<path id="XMLID_50_" class="st0" d="M29.8,95.4h3.8c0-1-0.1-2.7-1.8-2.7C30,92.6,29.9,94.7,29.8,95.4z"/>
<path id="XMLID_51_" class="st0" d="M42,99c0,1.1,0.6,1.6,1.9,1.6c1.7,0,2.6-0.9,2.6-2.6v-1.1c-0.5-0.1-0.9-0.1-1.1-0.1
	C43.2,96.8,42,97.5,42,99z"/>
<path id="XMLID_52_" class="st0" d="M81.6,116c-1.9,0-2,2-2.1,2.7h3.8C83.3,117.7,83.3,116,81.6,116z"/>
<path id="XMLID_55_" class="st0" d="M0,35.8V136h100V35.8H0z M51.4,90.5h1.4V88l2.8-1.1v3.5h3.3v2.3h-3.3v5.3c0,0.9,0.1,1.5,0.4,1.8
	c0.3,0.4,0.8,0.5,1.4,0.5c0.7,0,1.3-0.2,1.9-0.6v2.6c-0.7,0.2-1.6,0.3-2.8,0.3c-1.2,0-2.1-0.3-2.8-1c-0.7-0.7-1-1.7-1-2.9v-6.2h-1.4
	V90.5z M40.8,67.1c4.1,0,4.9,3.7,4.9,6.6c0,0.5-0.1,0.6-0.6,0.6h-6.5c0,1.4,0.4,3,2.7,3c1.8,0,2.7-0.8,3.1-0.8
	c0.1,0,0.2,0.1,0.3,0.2l0.6,1.5c0,0.1,0.1,0.2,0.1,0.3c0,0.6-2.4,1.4-4.3,1.4c-3.2,0-5.4-1.8-5.4-6.3C35.5,69.8,37.6,67.1,40.8,67.1
	z M36.9,97c0,0.5-0.1,0.6-0.6,0.6h-6.5c0,1.4,0.4,3,2.7,3c1.8,0,2.7-0.8,3.1-0.8c0.1,0,0.2,0.1,0.3,0.2l0.6,1.5
	c0,0.1,0.1,0.2,0.1,0.3c0,0.6-2.4,1.4-4.3,1.4c-3.2,0-5.4-1.8-5.4-6.3c0-3.9,2.1-6.5,5.3-6.5C36.2,90.4,36.9,94.1,36.9,97z
	 M22.9,62.5l2.9-0.7v6c0.7-0.7,1.7-1,3-1c1.5,0,2.7,0.4,3.6,1.3c0.8,0.8,1.3,2.1,1.3,3.6v7.5h-2.9v-7.5c0-0.8-0.2-1.4-0.7-1.8
	c-0.5-0.5-1.1-0.7-1.8-0.7c-0.5,0-0.9,0.1-1.4,0.4c-0.5,0.3-0.8,0.5-1,0.9v8.8h-2.9V62.5z M7.3,62.6h13.8v2.6h-5.6v14.1h-3V65.2H7.3
	V62.6z M15.3,126.3c-2.3,0-4.1-0.8-5.4-2.3c-1.3-1.5-1.9-3.6-1.9-6.3c0-2.5,0.7-4.5,2.1-6.2c1.4-1.7,3.3-2.5,5.5-2.5
	c1.9,0,3.4,0.4,4.6,1.2l-1.2,2.5c-0.7-0.7-1.7-1-3.2-1c-1.4,0-2.5,0.6-3.4,1.7c-0.9,1.2-1.3,2.6-1.3,4.4c0,1.8,0.4,3.2,1.2,4.2
	c0.8,1,1.9,1.6,3.3,1.6c1.6,0,2.8-0.6,3.7-1.7l1.4,2.4C19.4,125.7,17.7,126.3,15.3,126.3z M21,102.9h-2c-0.4,0-0.4-0.1-0.5-0.4
	l-1.5-7.8c-0.2-1.1-0.4-2.5-0.5-4h0c-0.1,1.6-0.3,3-0.6,4l-1.9,7.8c-0.1,0.4-0.1,0.4-0.5,0.4h-2c-0.4,0-0.4-0.1-0.5-0.4l-3-14.9
	c0-0.2-0.1-0.4-0.1-0.5s0.3-0.2,0.4-0.2l1.8-0.3c0.1,0,0.2,0,0.4,0c0.1,0,0.3,0,0.4,0.5l1.4,7.6c0.2,1.3,0.4,3.2,0.5,4.4h0
	c0.1-1.3,0.5-3.2,0.7-4.4l1.7-7.1c0.1-0.5,0.1-0.7,0.7-0.7h1.6c0.4,0,0.4,0.2,0.5,0.7l1.7,7.1c0.3,1.2,0.5,3.1,0.7,4.4h0
	c0.1-1.2,0.3-3.1,0.5-4.4l1.4-7.6c0.1-0.5,0.2-0.5,0.4-0.5c0.1,0,0.3,0,0.4,0l1.8,0.4c0.2,0,0.4,0.1,0.4,0.2c0,0.1-0.1,0.4-0.1,0.5
	l-3.4,14.9C21.4,102.8,21.3,102.9,21,102.9z M33.6,126h-2.9v-7.5c0-0.8-0.2-1.4-0.7-1.8c-0.5-0.5-1.1-0.7-1.8-0.7
	c-0.5,0-0.9,0.1-1.4,0.4s-0.8,0.5-1,0.9v8.8h-2.9v-16.8l2.9-0.7v6c0.7-0.7,1.7-1,3-1c1.5,0,2.7,0.4,3.6,1.3c0.8,0.8,1.3,2.1,1.3,3.6
	V126z M46.3,126.1c-0.3,0.1-0.6,0.1-1,0.1c-0.4,0-0.8-0.2-1.1-0.5c-0.3-0.3-0.5-0.6-0.7-1c-0.3,0.4-0.7,0.8-1.4,1
	c-0.6,0.3-1.3,0.4-2,0.4c-1.3,0-2.4-0.3-3.1-1c-0.8-0.7-1.1-1.6-1.1-2.8c0-1.4,0.5-2.5,1.6-3.3c1.1-0.8,2.6-1.2,4.5-1.2
	c0.3,0,0.7,0.1,1.2,0.2c0-1.4-0.9-2.2-2.7-2.2c-1.1,0-2,0.2-2.7,0.5l-0.6-2.2c1-0.5,2.2-0.7,3.5-0.7c1.9,0,3.2,0.4,4.1,1.3
	c0.9,0.8,1.3,2.4,1.3,4.8v2.6c0,1.6,0.3,2.6,1,3.1C46.9,125.7,46.6,126,46.3,126.1z M47.4,102.4c-0.3-0.3-0.5-0.6-0.7-1
	c-0.3,0.4-0.7,0.8-1.4,1c-0.6,0.3-1.3,0.4-2,0.4c-1.3,0-2.4-0.3-3.1-1c-0.8-0.7-1.1-1.6-1.1-2.8c0-1.4,0.5-2.5,1.6-3.3
	c1.1-0.8,2.6-1.2,4.5-1.2c0.3,0,0.7,0.1,1.2,0.2c0-1.4-0.9-2.2-2.7-2.2c-1.1,0-2,0.2-2.7,0.5l-0.6-2.2c1-0.5,2.2-0.7,3.5-0.7
	c1.9,0,3.2,0.4,4.1,1.3c0.9,0.8,1.3,2.4,1.3,4.8v2.6c0,1.6,0.3,2.6,1,3.1c-0.2,0.4-0.5,0.7-0.8,0.8c-0.3,0.1-0.6,0.1-1,0.1
	C48.1,102.9,47.8,102.7,47.4,102.4z M59.9,126H57v-7c0-1-0.2-1.8-0.6-2.3c-0.4-0.5-1.1-0.7-2-0.7c-0.4,0-0.9,0.1-1.3,0.4
	c-0.5,0.2-0.8,0.5-1.1,0.9v8.8h-2.9v-12.2h2.1l0.5,1.1c0.8-0.9,1.9-1.4,3.4-1.4c1.5,0,2.6,0.4,3.4,1.3c0.8,0.9,1.3,2.1,1.3,3.6V126z
	 M61.7,85.9l2.9-0.7v6c0.7-0.7,1.7-1,3-1c1.5,0,2.7,0.4,3.6,1.3c0.8,0.8,1.3,2.1,1.3,3.6v7.5h-2.8v-7.5c0-0.8-0.2-1.4-0.7-1.8
	c-0.5-0.5-1.1-0.7-1.8-0.7c-0.5,0-0.9,0.1-1.4,0.4c-0.5,0.3-0.8,0.5-1,0.9v8.8h-2.9V85.9z M73.7,126h-2.9v-7c0-1-0.2-1.8-0.6-2.3
	c-0.4-0.5-1.1-0.7-2-0.7c-0.4,0-0.9,0.1-1.3,0.4c-0.5,0.2-0.8,0.5-1.1,0.9v8.8H63v-12.2H65l0.5,1.1c0.8-0.9,1.9-1.4,3.4-1.4
	c1.5,0,2.6,0.4,3.4,1.3c0.8,0.9,1.3,2.1,1.3,3.6V126z M80.7,90.4c4.1,0,4.9,3.7,4.9,6.6c0,0.5-0.1,0.6-0.6,0.6h-6.5
	c0,1.4,0.4,3,2.7,3c1.8,0,2.7-0.8,3.1-0.8c0.1,0,0.2,0.1,0.3,0.2l0.6,1.5c0,0.1,0.1,0.2,0.1,0.3c0,0.6-2.4,1.4-4.3,1.4
	c-3.2,0-5.4-1.8-5.4-6.3C75.3,93.1,77.4,90.4,80.7,90.4z M86.1,121h-6.5c0,1.4,0.4,3,2.7,3c1.8,0,2.7-0.8,3.1-0.8
	c0.1,0,0.2,0.1,0.3,0.2l0.6,1.5c0,0.1,0.1,0.2,0.1,0.3c0,0.6-2.4,1.4-4.3,1.4c-3.2,0-5.4-1.8-5.4-6.3c0-3.9,2.1-6.5,5.3-6.5
	c4.1,0,4.9,3.7,4.9,6.6C86.6,120.8,86.5,121,86.1,121z M92.4,126.4c-2.9,0-2.9-2.4-2.9-4.5V110c0-0.4,0.2-0.4,0.4-0.4l2-0.4
	c0.1,0,0.3-0.1,0.3-0.1c0.2,0,0.2,0.1,0.2,0.5v12.7c0,0.7,0,1.4,0.7,1.4c0.5,0,0.8-0.2,0.9-0.2c0.1,0,0.2,0,0.2,0.1l0.5,1.9
	c0,0.1,0,0.1,0,0.2C94.8,126.1,93.5,126.4,92.4,126.4z M95.4,93.1c-0.5-0.3-1.1-0.5-1.7-0.5c-0.7,0-1.3,0.3-1.8,0.9
	c-0.5,0.6-0.8,1.3-0.8,2.2v6.9h-2.9V90.5h2.9v1.1c0.8-0.9,1.9-1.4,3.2-1.4c1,0,1.7,0.1,2.2,0.4L95.4,93.1z"/>
<path id="XMLID_72_" class="st0" d="M40.7,69.4c-1.9,0-2,2-2.1,2.7h3.8C42.4,71.1,42.3,69.4,40.7,69.4z"/>
<text id="XMLID_1_" transform="matrix(1 0 0 1 23.0241 23.687)" class="st0 st1 st2">Data by</text>
</svg>
