<?xml version="1.0" encoding="utf-8"?>
<!-- Generator: Adobe Illustrator 19.0.0, SVG Export Plug-In . SVG Version: 6.00 Build 0)  -->
<svg version="1.1" id="Layer_1" xmlns="http://www.w3.org/2000/svg" xmlns:xlink="http://www.w3.org/1999/xlink" x="0px" y="0px"
	 viewBox="0 0 76 92" style="enable-background:new 0 0 76 92;" xml:space="preserve">
<style type="text/css">
	.st0{opacity:0.8;}
	.st1{fill:#FFFFFF;}
</style>
<path id="XMLID_2_" class="st0" d="M64.5,11.7C49.9-3,26.1-3,11.5,11.7C-2.8,26-3.1,49.2,10.7,63.9l0,0L38,91.3l25.6-25.7l0,0
	c0.3-0.3,0.6-0.5,0.9-0.8C79.1,50.1,79.1,26.3,64.5,11.7z"/>
<g id="XMLID_28_">
	<path id="XMLID_41_" class="st1" d="M38,2c9.6,0,18.7,3.8,25.5,10.6c14,14.1,14,37,0,51.1c-0.2,0.2-0.4,0.4-0.6,0.6l-0.2,0.2
		l-1.5,1.4l0,0L38,89.2L12.4,63.5l-0.6-0.7C5.3,55.9,1.9,47,2,37.6c0.1-9.4,3.9-18.3,10.5-25C19.3,5.8,28.4,2,38,2 M38,0
		c-9.7,0-19.5,3.7-26.9,11.2c-14.6,14.6-14.8,38.1-0.8,53l0,0L38,92l26-26.1l0,0c0.3-0.3,0.6-0.6,0.9-0.8c14.8-14.9,14.8-39,0-53.9
		C57.4,3.7,47.7,0,38,0L38,0z"/>
</g>
</svg>
