<?xml version="1.0" encoding="utf-8"?>
<!-- Generator: Adobe Illustrator 19.0.0, SVG Export Plug-In . SVG Version: 6.00 Build 0)  -->
<svg version="1.1" id="Layer_1" xmlns="http://www.w3.org/2000/svg" xmlns:xlink="http://www.w3.org/1999/xlink" x="0px" y="0px"
	 viewBox="0 0 50 50" style="enable-background:new 0 0 50 50;" xml:space="preserve">
<style type="text/css">
	.st0{fill:#FFFFFF;}
</style>
<g>
	<path class="st0" d="M25,50C11.2,50,0,38.8,0,25S11.2,0,25,0s25,11.2,25,25S38.8,50,25,50z M25,3.9C13.3,3.9,3.9,13.3,3.9,25
		S13.3,46.1,25,46.1S46.1,36.7,46.1,25S36.7,3.9,25,3.9z"/>
</g>
<g>
	<path id="XMLID_5_" class="st0" d="M48.1,26.9H1.9C0.9,26.9,0,26.1,0,25c0-1.1,0.9-1.9,1.9-1.9h46.1c1.1,0,1.9,0.9,1.9,1.9
		C50,26.1,49.1,26.9,48.1,26.9z"/>
</g>
<g>
	<path class="st0" d="M25,50c-0.5,0-1-0.2-1.4-0.6c-0.4-0.4-10.7-11-10.7-24.3c0-13.4,10.3-23.9,10.7-24.4C24,0.3,24.5,0.1,25,0.1
		l0,0c0.5,0,1,0.2,1.4,0.6c0.4,0.4,10.7,11,10.7,24.4c0,13.4-10.3,23.9-10.7,24.3C26,49.8,25.5,50,25,50z M25,5
		c-2.7,3.2-8.2,11.1-8.2,20.1s5.6,16.8,8.2,20.1c2.7-3.2,8.2-11.1,8.2-20.1C33.2,16.1,27.7,8.2,25,5z"/>
</g>
<g>
	<path id="XMLID_2_" class="st0" d="M25,15.3c-7,0-13.6-1.4-18.3-3.7C5.8,11.1,5.4,9.9,5.9,9c0.5-1,1.6-1.3,2.6-0.8
		c4.1,2.1,10.1,3.3,16.5,3.3c6.4,0,12.4-1.2,16.5-3.3c1-0.5,2.1-0.1,2.6,0.8c0.5,0.9,0.1,2.1-0.8,2.6C38.6,13.9,32,15.3,25,15.3z"/>
</g>
<g>
	<path id="XMLID_1_" class="st0" d="M7.6,41.4c-0.7,0-1.4-0.4-1.7-1.1c-0.5-0.9-0.1-2.1,0.8-2.6C11.4,35.3,18,34,25,34
		c7,0,13.6,1.4,18.3,3.7c0.9,0.5,1.3,1.6,0.8,2.6c-0.5,0.9-1.6,1.3-2.6,0.8c-4.1-2.1-10.1-3.3-16.5-3.3c-6.4,0-12.4,1.2-16.5,3.3
		C8.2,41.3,7.9,41.4,7.6,41.4z"/>
</g>
</svg>
