<?xml version="1.0" encoding="utf-8"?>
<!-- Generator: Adobe Illustrator 19.0.0, SVG Export Plug-In . SVG Version: 6.00 Build 0)  -->
<svg version="1.1" id="Layer_1" xmlns="http://www.w3.org/2000/svg" xmlns:xlink="http://www.w3.org/1999/xlink" x="0px" y="0px"
	 viewBox="-329 455.9 92.1 14.2" style="enable-background:new -329 455.9 92.1 14.2;" xml:space="preserve">
<style type="text/css">
	.st0{fill:#FFFFFF;}
</style>
<g>
	<path class="st0" d="M-318.1,456.1v8.9c0,1.6-0.5,2.8-1.4,3.7c-1,0.9-2.3,1.4-3.9,1.4s-3-0.5-3.9-1.4c-0.9-0.9-1.4-2.2-1.4-3.7
		v-8.9h1.6v9c0,1.2,0.3,2,0.9,2.7c0.6,0.6,1.6,0.9,2.8,0.9c1.2,0,2.1-0.3,2.7-0.9c0.6-0.6,0.9-1.5,0.9-2.7v-9H-318.1z"/>
	<path class="st0" d="M-305.9,460.1c0,1.4-0.5,2.5-1.4,3.2s-2.3,1.1-4.1,1.1h-1.6v5.4h-1.6v-13.8h3.6
		C-307.7,456.1-305.9,457.4-305.9,460.1z M-313.1,463.1h1.4c1.4,0,2.5-0.2,3.1-0.7c0.6-0.5,1-1.2,1-2.2c0-0.9-0.3-1.6-0.9-2
		c-0.6-0.4-1.5-0.7-2.8-0.7h-1.8V463.1z"/>
	<path class="st0" d="M-292.3,462.9c0,2.3-0.6,4-1.9,5.2c-1.2,1.2-3,1.8-5.3,1.8h-3.8v-13.8h4.2c2.2,0,3.8,0.6,5,1.8
		S-292.3,460.7-292.3,462.9z M-294,462.9c0-1.8-0.5-3.2-1.4-4.1c-0.9-0.9-2.3-1.4-4-1.4h-2.3v11h2c1.9,0,3.4-0.5,4.3-1.4
		C-294.5,466.2-294,464.8-294,462.9z"/>
	<path class="st0" d="M-280.8,469.9l-1.7-4.4h-5.5l-1.7,4.4h-1.6l5.5-13.9h1.4l5.4,13.9H-280.8z M-283,464.1l-1.6-4.3
		c-0.2-0.5-0.4-1.2-0.6-2c-0.1,0.6-0.3,1.3-0.6,2l-1.6,4.3H-283z"/>
	<path class="st0" d="M-273.3,469.9h-1.6v-12.4h-4.4v-1.4h10.4v1.4h-4.4V469.9z"/>
	<path class="st0" d="M-267.1,469.9v-13.8h1.6v13.8H-267.1z"/>
	<path class="st0" d="M-251.2,469.9h-1.8l-7.6-11.6h-0.1c0.1,1.4,0.2,2.6,0.2,3.7v7.9h-1.5v-13.8h1.8l7.5,11.6h0.1
		c0-0.2,0-0.7-0.1-1.6c0-0.9-0.1-1.6,0-2v-7.9h1.5V469.9z"/>
	<path class="st0" d="M-241.6,462.7h4.7v6.7c-0.7,0.2-1.5,0.4-2.2,0.5c-0.8,0.1-1.6,0.2-2.6,0.2c-2.1,0-3.7-0.6-4.9-1.9
		c-1.2-1.2-1.8-3-1.8-5.2c0-1.4,0.3-2.7,0.9-3.8c0.6-1.1,1.4-1.9,2.5-2.5c1.1-0.6,2.4-0.9,3.8-0.9c1.5,0,2.9,0.3,4.1,0.8l-0.6,1.4
		c-1.2-0.5-2.5-0.8-3.6-0.8c-1.7,0-3,0.5-3.9,1.5c-0.9,1-1.4,2.4-1.4,4.2c0,1.9,0.5,3.3,1.4,4.2c0.9,1,2.2,1.4,4,1.4
		c1,0,1.9-0.1,2.8-0.3v-4.3h-3.1V462.7z"/>
</g>
</svg>
