<?xml version="1.0" encoding="utf-8"?>
<!-- Generator: Adobe Illustrator 19.0.0, SVG Export Plug-In . SVG Version: 6.00 Build 0)  -->
<svg version="1.1" id="Layer_1" xmlns="http://www.w3.org/2000/svg" xmlns:xlink="http://www.w3.org/1999/xlink" x="0px" y="0px"
	 viewBox="-329 455.9 150 30" style="enable-background:new -329 455.9 150 30;" xml:space="preserve">
<style type="text/css">
	.st0{fill:#FFFFFF;}
</style>
<g id="XMLID_2_">
	<path id="XMLID_3_" class="st0" d="M-324.7,472.9c0,4.8,3.9,8.6,8.6,8.6c4.8,0,8.6-3.9,8.6-8.6c0-4.8-3.9-8.6-8.6-8.6v4.6l-6.5-6.5
		l6.5-6.5v4.1c7.1,0,12.9,5.8,12.9,13c0,7.2-5.8,13-13,13c-7.2,0-13-5.8-13-13H-324.7z"/>
</g>
<g>
	<path class="st0" d="M-276.5,465.2v8.9c0,1.6-0.5,2.8-1.4,3.7c-1,0.9-2.3,1.4-3.9,1.4s-3-0.5-3.9-1.4c-0.9-0.9-1.4-2.2-1.4-3.7
		v-8.9h1.6v9c0,1.2,0.3,2,0.9,2.7s1.6,0.9,2.8,0.9c1.2,0,2.1-0.3,2.7-0.9c0.6-0.6,0.9-1.5,0.9-2.7v-9H-276.5z"/>
	<path class="st0" d="M-264.4,469.3c0,1.4-0.5,2.5-1.4,3.2c-1,0.8-2.3,1.1-4.1,1.1h-1.6v5.4h-1.6v-13.8h3.6
		C-266.1,465.2-264.4,466.6-264.4,469.3z M-271.5,472.2h1.4c1.4,0,2.5-0.2,3.1-0.7c0.6-0.5,1-1.2,1-2.2c0-0.9-0.3-1.6-0.9-2
		c-0.6-0.4-1.5-0.7-2.8-0.7h-1.8V472.2z"/>
	<path class="st0" d="M-250.7,472c0,2.3-0.6,4-1.9,5.2c-1.2,1.2-3,1.8-5.3,1.8h-3.8v-13.8h4.2c2.2,0,3.8,0.6,5,1.8
		C-251.3,468.2-250.7,469.9-250.7,472z M-252.4,472.1c0-1.8-0.5-3.2-1.4-4.1c-0.9-0.9-2.3-1.4-4-1.4h-2.3v11h2
		c1.9,0,3.4-0.5,4.3-1.4C-252.9,475.3-252.4,473.9-252.4,472.1z"/>
	<path class="st0" d="M-239.2,479.1l-1.7-4.4h-5.5l-1.7,4.4h-1.6l5.5-13.9h1.4l5.4,13.9H-239.2z M-241.5,473.2l-1.6-4.3
		c-0.2-0.5-0.4-1.2-0.6-2c-0.1,0.6-0.3,1.3-0.6,2l-1.6,4.3H-241.5z"/>
	<path class="st0" d="M-231.7,479.1h-1.6v-12.4h-4.4v-1.4h10.4v1.4h-4.4V479.1z"/>
	<path class="st0" d="M-225.5,479.1v-13.8h1.6v13.8H-225.5z"/>
	<path class="st0" d="M-209.6,479.1h-1.8l-7.6-11.6h-0.1c0.1,1.4,0.2,2.6,0.2,3.7v7.9h-1.5v-13.8h1.8l7.5,11.6h0.1
		c0-0.2,0-0.7-0.1-1.6c0-0.9-0.1-1.6,0-2v-7.9h1.5V479.1z"/>
	<path class="st0" d="M-200,471.8h4.7v6.7c-0.7,0.2-1.5,0.4-2.2,0.5c-0.8,0.1-1.6,0.2-2.6,0.2c-2.1,0-3.7-0.6-4.9-1.9
		c-1.2-1.2-1.8-3-1.8-5.2c0-1.4,0.3-2.7,0.9-3.8c0.6-1.1,1.4-1.9,2.5-2.5c1.1-0.6,2.4-0.9,3.8-0.9c1.5,0,2.9,0.3,4.1,0.8l-0.6,1.4
		c-1.2-0.5-2.5-0.8-3.6-0.8c-1.7,0-3,0.5-3.9,1.5c-0.9,1-1.4,2.4-1.4,4.2c0,1.9,0.5,3.3,1.4,4.2c0.9,1,2.2,1.4,4,1.4
		c1,0,1.9-0.1,2.8-0.3v-4.3h-3.1V471.8z"/>
</g>
</svg>
